<?xml version="1.0" encoding="iso-8859-1"?>
<!-- Generator: Adobe Illustrator 16.0.0, SVG Export Plug-In . SVG Version: 6.00 Build 0)  -->
<!DOCTYPE svg PUBLIC "-//W3C//DTD SVG 1.1//EN" "http://www.w3.org/Graphics/SVG/1.1/DTD/svg11.dtd">
<svg version="1.1" id="Capa_1" xmlns="http://www.w3.org/2000/svg" xmlns:xlink="http://www.w3.org/1999/xlink" x="0px" y="0px"
	 width="352.932px" height="352.933px" viewBox="0 0 352.932 352.933" style="enable-background:new 0 0 352.932 352.933;"
	 xml:space="preserve">
<g>
	<g>
		<g>
			<path d="M317.246,118.091h-61.501V25.409L224.82,0H97.179v118.091H35.66c-8.806,0-15.964,7.169-15.964,15.987V250.58
				c0,8.827,7.158,16.003,15.964,16.003h63.333v86.35l158.578-0.013v-86.343h59.688c8.804,0,15.979-7.182,15.979-16.003V134.078
				C333.23,125.254,326.054,118.091,317.246,118.091z M228.062,15.763l11.47,9.413h-11.47V15.763z M107.294,10.118H217.95v25.166
				h27.683v80.993H107.294V10.118z M50.246,155.98v-9.07h68.178v9.07H50.246z M247.452,342.802l-138.362,0.012l0.012-131.648
				h138.351V342.802z M291.881,166.981c-8.557,0-15.522-6.965-15.522-15.531s6.972-15.525,15.522-15.525
				c8.575,0,15.534,6.959,15.534,15.525S300.45,166.981,291.881,166.981z"/>
		</g>
		<g>
			<path d="M291.881,146.031c2.984,0,5.404,2.423,5.404,5.414c0,2.987-2.42,5.41-5.404,5.41c-2.99,0-5.416-2.423-5.416-5.41
				C286.465,148.454,288.891,146.031,291.881,146.031z"/>
		</g>
		<g>
			<rect x="131.772" y="232.722" width="94.464" height="10.112"/>
		</g>
		<g>
			<rect x="131.772" y="250.917" width="94.464" height="10.117"/>
		</g>
		<g>
			<rect x="131.034" y="270.108" width="94.482" height="10.111"/>
		</g>
		<g>
			<rect x="131.034" y="288.314" width="94.482" height="10.118"/>
		</g>
		<g>
			<rect x="131.034" y="306.749" width="94.482" height="10.118"/>
		</g>
	</g>
</g>
<g>
</g>
<g>
</g>
<g>
</g>
<g>
</g>
<g>
</g>
<g>
</g>
<g>
</g>
<g>
</g>
<g>
</g>
<g>
</g>
<g>
</g>
<g>
</g>
<g>
</g>
<g>
</g>
<g>
</g>
</svg>
