<?xml version="1.0" encoding="UTF-8" standalone="no"?>
<!-- Generator: Adobe Illustrator 16.0.0, SVG Export Plug-In . SVG Version: 6.00 Build 0)  -->

<svg
   xmlns:dc="http://purl.org/dc/elements/1.1/"
   xmlns:cc="http://creativecommons.org/ns#"
   xmlns:rdf="http://www.w3.org/1999/02/22-rdf-syntax-ns#"
   xmlns:svg="http://www.w3.org/2000/svg"
   xmlns="http://www.w3.org/2000/svg"
   xmlns:sodipodi="http://sodipodi.sourceforge.net/DTD/sodipodi-0.dtd"
   xmlns:inkscape="http://www.inkscape.org/namespaces/inkscape"
   version="1.1"
   id="Capa_1"
   x="0px"
   y="0px"
   width="69.560539"
   height="105.2"
   viewBox="0 0 69.560541 105.2"
   xml:space="preserve"
   inkscape:version="0.48.4 r9939"
   sodipodi:docname="character-printer.svg"><metadata
     id="metadata63"><rdf:RDF><cc:Work
         rdf:about=""><dc:format>image/svg+xml</dc:format><dc:type
           rdf:resource="http://purl.org/dc/dcmitype/StillImage" /></cc:Work></rdf:RDF></metadata><defs
     id="defs61" /><sodipodi:namedview
     pagecolor="#ffffff"
     bordercolor="#666666"
     borderopacity="1"
     objecttolerance="10"
     gridtolerance="10"
     guidetolerance="10"
     inkscape:pageopacity="0"
     inkscape:pageshadow="2"
     inkscape:window-width="2880"
     inkscape:window-height="1565"
     id="namedview59"
     showgrid="false"
     fit-margin-top="0"
     fit-margin-left="0"
     fit-margin-right="0"
     fit-margin-bottom="0"
     inkscape:zoom="7.5399363"
     inkscape:cx="47.346982"
     inkscape:cy="19.48065"
     inkscape:window-x="-3"
     inkscape:window-y="-3"
     inkscape:window-maximized="1"
     inkscape:current-layer="Capa_1" /><g
     id="g3"
     transform="translate(-27.82,0)"><g
       id="g5"><rect
         x="46.703999"
         y="53.813999"
         width="8.0649996"
         height="14.786"
         id="rect7" /><path
         d="M 97.305,9.683 C 97.283,3.496 93.715,0 87.512,0 L 51.317,0.056 c -6.974,0 -12.647,5.673 -12.647,12.647 v 27.284 h 3.036 V 12.704 c 0,-5.3 4.312,-9.611 9.611,-9.611 h 27.998 c -1.691,2.354 -1.691,5.621 -1.691,9.611 v 27.284 h 3.034 V 18.267 l 13.123,-0.005 c 0.577,0 1.483,-0.124 2.262,-0.775 0.576,-0.481 1.265,-1.417 1.261,-3.044 0.156,-2.501 0.03,-4.385 0.001,-4.76 z m -2.881,4.669 c 0,0.452 -0.084,0.796 -0.226,0.92 -0.127,0.112 -0.406,0.124 -0.479,0.11 l -13.062,0.005 v -2.684 c 0,-2.343 0.025,-4.085 0.234,-5.422 0.725,-2.973 2.892,-4.452 6.619,-4.452 4.651,0 6.914,2.262 6.914,6.913 l 0.006,0.124 c 0.002,0.019 0.156,1.883 -0.006,4.486 z"
         id="path9"
         inkscape:connector-curvature="0" /><path
         d="m 59.1,28.638 h 14.222 c 0.839,0 1.52,-0.68 1.52,-1.517 0,-0.839 -0.681,-1.518 -1.52,-1.518 H 59.1 v 3.035 z"
         id="path11"
         inkscape:connector-curvature="0" /><rect
         x="51.432999"
         y="25.604"
         width="5.6669998"
         height="3.0339999"
         id="rect13" /><path
         d="m 45.499,28.638 h 3.934 v -3.034 h -3.934 c -0.838,0 -1.518,0.679 -1.518,1.518 10e-4,0.836 0.681,1.516 1.518,1.516 z"
         id="path15"
         inkscape:connector-curvature="0" /><rect
         x="72.247002"
         y="53.813999"
         width="8.0649996"
         height="14.786"
         id="rect17" /><path
         d="m 43.982,15.233 c 0,0.838 0.68,1.518 1.518,1.518 h 7.268 V 13.716 H 45.5 c -0.838,-10e-4 -1.518,0.68 -1.518,1.517 z"
         id="path19"
         inkscape:connector-curvature="0" /><path
         d="m 84.668,25.658 0,18.948 -49.234,0 0,-18.948 c -4.32,0.727 -7.614,4.474 -7.614,8.999 l 0,61.405 c 0,5.047 4.09,9.138 9.137,9.138 l 46.188,0 c 5.047,0 9.138,-4.091 9.138,-9.138 l 0,-61.405 C 92.282,30.131 88.987,26.384 84.668,25.658 z M 79,96.245 l -8.691,0 0,-8.69 8.691,0 z m 5.076,-24.946 -49.066,0 0,-19.625 49.065,0 10e-4,19.625 z"
         id="path21"
         inkscape:connector-curvature="0"
         sodipodi:nodetypes="ccccsssssccccccccccccc" /><rect
         x="54.766998"
         y="13.715"
         width="10.667"
         height="3.0350001"
         id="rect23" /><path
         d="m 74.84,15.233 c 0,-0.837 -0.68,-1.518 -1.519,-1.518 h -5.89 v 3.035 h 5.89 c 0.84,0 1.519,-0.679 1.519,-1.517 z"
         id="path25"
         inkscape:connector-curvature="0" /><rect
         x="59.377998"
         y="53.813999"
         width="8.0649996"
         height="14.786"
         id="rect27" /></g></g><g
     id="g29"
     transform="translate(-27.82,0)" /><g
     id="g31"
     transform="translate(-27.82,0)" /><g
     id="g33"
     transform="translate(-27.82,0)" /><g
     id="g35"
     transform="translate(-27.82,0)" /><g
     id="g37"
     transform="translate(-27.82,0)" /><g
     id="g39"
     transform="translate(-27.82,0)" /><g
     id="g41"
     transform="translate(-27.82,0)" /><g
     id="g43"
     transform="translate(-27.82,0)" /><g
     id="g45"
     transform="translate(-27.82,0)" /><g
     id="g47"
     transform="translate(-27.82,0)" /><g
     id="g49"
     transform="translate(-27.82,0)" /><g
     id="g51"
     transform="translate(-27.82,0)" /><g
     id="g53"
     transform="translate(-27.82,0)" /><g
     id="g55"
     transform="translate(-27.82,0)" /><g
     id="g57"
     transform="translate(-27.82,0)" /></svg>