<?xml version="1.0" encoding="UTF-8" standalone="no"?>
<!-- Generator: Adobe Illustrator 18.1.1, SVG Export Plug-In . SVG Version: 6.00 Build 0)  -->

<svg
   xmlns:dc="http://purl.org/dc/elements/1.1/"
   xmlns:cc="http://creativecommons.org/ns#"
   xmlns:rdf="http://www.w3.org/1999/02/22-rdf-syntax-ns#"
   xmlns:svg="http://www.w3.org/2000/svg"
   xmlns="http://www.w3.org/2000/svg"
   xmlns:sodipodi="http://sodipodi.sourceforge.net/DTD/sodipodi-0.dtd"
   xmlns:inkscape="http://www.inkscape.org/namespaces/inkscape"
   version="1.1"
   id="Capa_1"
   x="0px"
   y="0px"
   viewBox="0 0 19.924008 15.365839"
   xml:space="preserve"
   inkscape:version="0.48.4 r9939"
   width="100%"
   height="100%"
   sodipodi:docname="tables1.svg"><metadata
     id="metadata43"><rdf:RDF><cc:Work
         rdf:about=""><dc:format>image/svg+xml</dc:format><dc:type
           rdf:resource="http://purl.org/dc/dcmitype/StillImage" /><dc:title></dc:title></cc:Work></rdf:RDF></metadata><defs
     id="defs41" /><sodipodi:namedview
     pagecolor="#ffffff"
     bordercolor="#666666"
     borderopacity="1"
     objecttolerance="10"
     gridtolerance="10"
     guidetolerance="10"
     inkscape:pageopacity="0"
     inkscape:pageshadow="2"
     inkscape:window-width="2880"
     inkscape:window-height="1565"
     id="namedview39"
     showgrid="false"
     fit-margin-top="0"
     fit-margin-left="0"
     fit-margin-right="0"
     fit-margin-bottom="0"
     inkscape:zoom="59"
     inkscape:cx="16.287772"
     inkscape:cy="6.1606595"
     inkscape:window-x="-3"
     inkscape:window-y="-3"
     inkscape:window-maximized="1"
     inkscape:current-layer="layer1" /><g
     id="g9"
     transform="translate(5.7247159,4.927966)" /><g
     id="g11"
     transform="translate(5.7247159,4.927966)" /><g
     id="g13"
     transform="translate(5.7247159,4.927966)" /><g
     id="g15"
     transform="translate(5.7247159,4.927966)" /><g
     id="g17"
     transform="translate(5.7247159,4.927966)" /><g
     id="g19"
     transform="translate(5.7247159,4.927966)" /><g
     id="g21"
     transform="translate(5.7247159,4.927966)" /><g
     id="g23"
     transform="translate(5.7247159,4.927966)" /><g
     id="g25"
     transform="translate(5.7247159,4.927966)" /><g
     id="g27"
     transform="translate(5.7247159,4.927966)" /><g
     id="g29"
     transform="translate(5.7247159,4.927966)" /><g
     id="g31"
     transform="translate(5.7247159,4.927966)" /><g
     id="g33"
     transform="translate(5.7247159,4.927966)" /><g
     id="g35"
     transform="translate(5.7247159,4.927966)" /><g
     id="g37"
     transform="translate(5.7247159,4.927966)" /><g
     inkscape:groupmode="layer"
     id="layer1"
     inkscape:label="Layer"
     style="display:inline"
     transform="translate(5.7247159,4.927966)"><g
       id="g5"
       transform="translate(-5.7247161,-5.427966)"
       style="fill:#000000"><path
         sodipodi:nodetypes="cccssccsscccccccccccccccccccccccccccccccccccccc"
         id="path7"
         d="M 16,7.4809322 16,1.448 l -0.018,0 C 15.939,0.933 15.523,0.5 15,0.5 L 1,0.5 C 0.477,0.5 0.061,0.933 0.017,1.448 L 0,1.448 0,14.5 c 0,0.552 0.448,1 1,1 l 9.966102,0 0,-8.0190678 z M 5,14.5 l -4,0 0,-3 4,0 z m 0,-3.917 -4,0 0,-3.1020678 4,0 z M 5,6.5 l -4,0 0,-3 4,0 z m 5,8 -4,0 0,-3 4,0 z m 0,-3.917 -4,0 0,-3.1020678 4,0 z m 0,-4.083 -4,0 0,-3 4,0 z m 5,0 -4.033898,0 0,-3 L 15,3.5 z"
         style="fill:#000000"
         inkscape:connector-curvature="0" /></g><polygon
       transform="matrix(0.59575041,0,0,0.59575041,0.2414561,-3.1368956)"
       style="fill:#010002"
       points="14.438,9.495 18.224,9.495 18.224,14.372 23.429,14.372 23.429,17.909 18.224,17.909 18.224,22.786 14.438,22.786 14.438,17.909 9.242,17.909 9.242,14.372 14.438,14.372 "
       id="polygon9" /></g></svg>