<?xml version="1.0" encoding="UTF-8" standalone="no"?>
<!-- Created with Inkscape (http://www.inkscape.org/) -->

<svg
   xmlns:dc="http://purl.org/dc/elements/1.1/"
   xmlns:cc="http://creativecommons.org/ns#"
   xmlns:rdf="http://www.w3.org/1999/02/22-rdf-syntax-ns#"
   xmlns:svg="http://www.w3.org/2000/svg"
   xmlns="http://www.w3.org/2000/svg"
   xmlns:sodipodi="http://sodipodi.sourceforge.net/DTD/sodipodi-0.dtd"
   xmlns:inkscape="http://www.inkscape.org/namespaces/inkscape"
   width="78.886681mm"
   height="134.62094mm"
   viewBox="0 0 78.886683 134.62094"
   version="1.1"
   id="svg1553"
   inkscape:version="0.92.4 (5da689c313, 2019-01-14)"
   sodipodi:docname="covid2.svg">
  <defs
     id="defs1547" />
  <sodipodi:namedview
     id="base"
     pagecolor="#ffffff"
     bordercolor="#666666"
     borderopacity="1.0"
     inkscape:pageopacity="0.0"
     inkscape:pageshadow="2"
     inkscape:zoom="0.35"
     inkscape:cx="-851.51966"
     inkscape:cy="224.26624"
     inkscape:document-units="mm"
     inkscape:current-layer="layer1"
     showgrid="false"
     fit-margin-top="0"
     fit-margin-left="0"
     fit-margin-right="0"
     fit-margin-bottom="0"
     inkscape:window-width="2880"
     inkscape:window-height="1527"
     inkscape:window-x="0"
     inkscape:window-y="0"
     inkscape:window-maximized="1" />
  <metadata
     id="metadata1550">
    <rdf:RDF>
      <cc:Work
         rdf:about="">
        <dc:format>image/svg+xml</dc:format>
        <dc:type
           rdf:resource="http://purl.org/dc/dcmitype/StillImage" />
        <dc:title></dc:title>
      </cc:Work>
    </rdf:RDF>
  </metadata>
  <g
     inkscape:label="Layer 1"
     inkscape:groupmode="layer"
     id="layer1"
     transform="translate(-27.99434,-73.549495)">
    <g
       id="g2238"
       transform="matrix(0.14018078,0,0,0.14018078,152.53344,160.36911)"
       style="stroke-width:7.13364553">
      <path
         inkscape:connector-curvature="0"
         id="path22"
         style="fill:#1a1a18;fill-opacity:1;fill-rule:evenodd;stroke:none;stroke-width:2.51659155"
         d="m -538.61279,-611.68759 c 1.85039,-0.052 3.341,-1.54249 3.3931,-3.39298 h 0.66682 v -0.19992 h -0.66682 c -0.052,-1.8505 -1.5426,-3.34109 -3.3931,-3.39309 v -0.66678 h -0.19987 v 0.66678 c -1.85044,0.052 -3.34102,1.54259 -3.39301,3.39309 h -0.66691 v 0.19992 h 0.66691 c 0.0521,1.85049 1.54268,3.34098 3.39301,3.39298 v 0.66693 h 0.19987 z m 0,-1.36998 c 1.09429,-0.0507 1.97242,-0.92879 2.023,-2.023 h 1.16989 c -0.0519,1.74 -1.45288,3.1411 -3.19289,3.19288 z m 2.023,-2.22292 c -0.0507,-1.09418 -0.92871,-1.97227 -2.023,-2.02297 v -1.17002 c 1.74011,0.0518 3.14111,1.45302 3.19289,3.19299 z m -2.22287,-2.02297 c -1.09421,0.0507 -1.97231,0.92879 -2.023,2.02297 h -1.16983 c 0.0518,-1.73997 1.45272,-3.1411 3.19283,-3.19299 z m -2.023,2.22289 c 0.0506,1.09421 0.92879,1.97231 2.023,2.023 v 1.16988 c -1.74,-0.0519 -3.14092,-1.45288 -3.19283,-3.19288 z m 2.22287,-2.02269 c 0.9838,0.0503 1.7725,0.83898 1.82282,1.82277 h -1.82282 z m 1.82282,2.02269 c -0.0503,0.98368 -0.83902,1.77239 -1.82282,1.8227 v -1.8227 z m -2.02269,1.8227 c -0.98372,-0.0503 -1.77244,-0.83902 -1.82274,-1.8227 h 1.82274 z m -1.82274,-2.02262 c 0.0503,-0.98379 0.83902,-1.7725 1.82274,-1.82277 v 1.82277 z" />
      <path
         d="m -572.42569,-58.972785 46.84093,23.67222 3.61378,-6.76905 3.3427,-22.39608 23.56609,-7.5211 21.05901,7.35402 12.86939,21.56047 3.1755,12.86941 -4.84688,9.5267 -29.41571,16.0449098 16.04489,25.7387702 8.7182,6.81914 10.31632,6.3161 6.31619,11.78997 -3.1581,12.84279 -6.52658,8.21103 -7.57944,3.7896 -9.68468,14.106 10.10579,14.94811 c 0,0 5.68452,16.000965 5.68452,18.106275 0,2.10532 -8.211,17.47449 -8.211,17.47449 l -7.78991,7.36883 3.19169,25.44879 12.3784,16.95299 2.42178,13.99289 -3.49816,12.91661 -15.87664,6.99648 -10.22567,1.61454 h -47.3606 -22.06572 l -16.68399,-6.18921 -40.3642,-0.80729 -26.6404,-5.6509 h -19.913 l -44.42659,-13.16053 -40.26263,-5.16197 -56.57426,-4.12951 -6.4008,-9.08502 4.54247,-9.91069 -11.14968,-4.54242 -18.3763,-9.08497 -6.19432,-20.85401 9.70432,-16.1051 3.71658,-5.78128 -2.00938,-5.79522 -5.8896,-37.104685 -8.8345,-3.82831 -10.30679,-13.2515 0.88339,-14.42969 7.65651,-12.95712 23.85307,2.65033 20.61361,-30.3316202 -3.53381,-5.3006098 -18.2578,-20.61369 -1.17789,-12.0737 5.3006,-13.25171 31.215,-12.07368 h 18.84691 l 13.5461,10.89578 7.06748,10.6013 10.30679,-7.36209 -1.47228,-8.5399 0.50489,-10.91589 13.72341,-10.78261 9.31249,1.22528 11.76292,10.0475 18.86981,0.73512 2.2056,-6.37151 1.2253,-15.43897 14.2137,-13.233325 27.6921,0.73522 9.31228,12.988195 1.96052,18.62479 25.48646,-2.2056 3.67612,33.0835 5.1462,43.62111979 12.00801,0.73517 11.518,-3.92096999 -1.96051,-47.0519098 m -166.45721,106.2441 26.7952,19.42219 42.62061,0.1797 -9.71098,32.729905 -11.14962,13.48751 -29.1332,-1.97821 -20.68079,-22.838905 -6.474,-26.6155 z m 124.21952,17.67948 14.27732,7.26382 17.78397,-0.50091 43.58319,-17.53359 -0.50098,28.05358 -12.5239,20.789795 -18.78578,11.27151 h -35.31751 l -10.77053,-16.03057 0.2503,-23.545025 z m -27.183,-99.14196 41.5889,20.4420698 0.70499,7.98891 -7.98891,13.8630102 -9.16369,-0.70493 -37.35951,-17.1525702 -3.5246,-7.9888 z"
         style="fill:#8acf00;fill-opacity:1;fill-rule:evenodd;stroke:none;stroke-width:2.51659155"
         id="path1718"
         inkscape:connector-curvature="0" />
      <path
         d="m -523.8719,-388.5994 c 0.21881,-0.2485 0.92493,-0.24038 1.64692,-0.0332 0.7773,0.2231 1.4327,0.6835 1.6327,1.2858 0.22841,0.6881 -0.19511,1.22809 0.14758,2.26032 0.35703,1.0753 2.11032,1.96758 4.13814,2.62728 1.69307,0.4082 3.21778,0.61231 4.13157,0.641 2.33889,-0.068 2.16419,-2.25838 1.40743,-4.53789 -1.31382,-3.95679 -4.67612,-7.87919 -11.89713,-10.10719 -11.21769,-3.21952 -18.1007,3.28789 -14.04019,17.3331 2.61329,7.87079 7.91612,12.03868 11.9067,13.76758 1.02809,0.37303 2.05631,0.74591 3.0004,1.01681 8.27458,2.37479 11.4286,-1.8953 11.67458,-6.29959 -0.0617,-0.64022 -0.12218,-1.12451 -0.27929,-1.59763 -0.6712,-2.02148 -2.89428,-2.8152 -5.89291,-3.67576 -5.35667,-1.30383 -3.92218,0.89778 -5.25018,2.34548 -0.38261,0.51269 -0.96332,0.57961 -1.71209,0.44241 -1.08381,-0.38872 -1.896,-1.32231 -2.25311,-2.39762 -1.35189,-7.70339 0.25191,-11.9515 1.63888,-13.0709 z m 24.35304,11.6635 c -4.19171,-1.27818 -5.25293,-1.52837 -5.24211,1.76421 0.003,0.68121 -0.0161,1.31251 0.1999,1.96402 0.52929,1.5941 2.1224,2.30639 4.97429,3.17867 l 18.79899,5.75042 c 4.2495,1.2997 4.69292,1.2441 5.3566,-1.42 0.24069,-0.96721 0.35531,-1.80471 0.1411,-2.4498 -0.42838,-1.29032 -1.69129,-1.91491 -4.43008,-2.75011 z m 37.27048,1.24143 c -0.77401,0.3798 -1.87619,0.8406 -6.56881,4.7298 -0.46868,0.38837 -0.5601,0.7342 -0.49969,1.21838 0.2966,0.59112 1.17771,1.11242 1.9119,1.5216 l 3.45271,1.9249 c -0.9362,4.59522 -0.63722,10.2591 -0.86773,15.3935 -0.0627,1.397 -0.30546,2.38628 0.005,3.19209 0.80809,2.0991 5.4755,3.47811 7.53031,4.06781 0.4999,0.14349 0.8351,0.24459 1.05531,0.3029 3.13868,0.8282 2.30709,-0.52369 2.37348,-2.08158 l 0.9725,-22.79563 c 0.0393,-0.91997 0.2155,-1.92249 -0.0702,-2.78267 -0.24272,-0.73121 -0.86529,-1.40311 -1.8879,-1.90381 -1.85719,-0.90949 -4.43778,-2.16859 -6.2152,-2.67871 -0.49948,-0.1434 -1.01489,-0.19519 -1.1915,-0.10858 z m 31.59731,23.89389 c -0.21532,-0.0446 -0.44434,-0.1275 -0.74882,-0.13721 -1.7502,-0.58 -3.96129,-2.3087 -4.59978,-4.47191 -0.17161,-0.58088 -0.2285,-1.14808 -0.25252,-1.66779 -0.0655,-1.42071 1.10619,-3.93358 4.63629,-2.83298 2.7478,0.85668 4.33631,3.07329 5.12181,5.43888 1.02822,3.09679 0.36999,6.41 -0.8264,7.1951 -0.83932,-0.86349 -0.6934,-2.84512 -2.69259,-3.41889 -0.16671,-0.0479 -0.36743,-0.0489 -0.63799,-0.1052 z m -5.75294,12.7852 c -0.42519,0.20018 -0.56338,0.4219 -0.5315,0.8201 0.36793,0.80608 1.9321,1.71548 3.05602,2.39469 1.32832,0.8028 3.08909,1.5871 4.5887,2.01739 0.5552,0.15942 1.01647,0.33491 1.3327,0.38251 4.2327,0.6354 7.87892,-3.58891 10.44181,-7.74279 1.78149,-2.88761 2.18157,-7.35081 0.6821,-11.86699 -1.89932,-5.7204 -6.6729,-11.4711 -15.18,-14.39581 -0.39729,-0.13652 -0.79181,-0.2662 -1.18049,-0.37782 -9.55183,-2.7413 -14.04641,3.08762 -12.13162,9.00903 1.84468,5.70399 7.24321,11.22298 13.74092,13.08787 1.22248,0.35081 2.19118,0.39532 3.35558,0.57381 -4.10929,4.26831 -6.9038,5.50021 -8.17422,6.09801"
         style="fill:#1a1a18;fill-opacity:1;fill-rule:nonzero;stroke:none;stroke-width:2.51659155"
         id="path1724"
         inkscape:connector-curvature="0" />
      <text
         y="340.99777"
         x="-896.05609"
         style="font-variant:normal;font-weight:900;font-size:83.20863342px;font-family:HelveticaNeueCE;-inkscape-font-specification:HelveticaNeueCE-BlackCond;writing-mode:lr-tb;fill:#1a1a18;fill-opacity:1;fill-rule:nonzero;stroke:none;stroke-width:2.51659155"
         id="text1728">
        <tspan
           x="-896.05609 -849.79205 -828.15784 -789.63226 -751.10663 -732.55164 -694.10925 -646.34741 -604.7431 -583.10889 -535.34711 -487.58542 -445.98111 -399.7171 -351.95529"
           y="340.99777"
           sodipodi:role="line"
           id="tspan1726"
           style="stroke-width:2.51659155">KILL THE DREAD!</tspan>
      </text>
      <path
         inkscape:connector-curvature="0"
         id="path1732"
         style="fill:#e3000f;fill-opacity:1;fill-rule:evenodd;stroke:none;stroke-width:2.51659155"
         d="m -746.16878,-193.45378 139.48248,-42.81151 c 152.6022,-41.04669 178.1511,-49.71648 178.1511,-49.71648 l -62.83618,165.03126 -252.72582,-55.93117 z" />
      <path
         d="m -651.85159,70.416795 2.1754,-15.39578 12.88549,-8.19978 -2.51008,38.15455 -3.68159,7.36312 -7.02843,-1.50601 z"
         style="fill:#e3000f;fill-opacity:1;fill-rule:evenodd;stroke:none;stroke-width:2.51659155"
         id="path1736"
         inkscape:connector-curvature="0" />
      <path
         d="m -540.25199,24.132705 16.5255,21.96431 -2.51018,9.41319 h -6.69382 l -14.0153,-17.98969 2.5101,-10.45921 z"
         style="fill:#e3000f;fill-opacity:1;fill-rule:evenodd;stroke:none;stroke-width:2.51659155"
         id="path1738"
         inkscape:connector-curvature="0" />
      <path
         d="m -527.49177,143.9948 7.94909,13.80622 1.04579,15.06109 -3.13769,9.41329 -12.34189,0.20908 -1.4642,-10.45919 2.09179,-23.42849 z"
         style="fill:#e3000f;fill-opacity:1;fill-rule:evenodd;stroke:none;stroke-width:2.51659155"
         id="path1740"
         inkscape:connector-curvature="0" />
      <path
         d="m -699.37398,195.67912 35.5652,11.25939 62.19452,8.39978 h 25.91437 l 16.08469,5.71903 44.7118,0.37729 h 32.83461 l 16.9835,-8.68042 5.6611,-9.05777 -3.39669,-20.38012 9.81278,3.01911 21.51222,29.06069 -5.28373,9.81261 -16.60599,1.50971 -35.09918,9.43528 h -26.41862 l -30.94768,13.2093 -22.6446,-1.13232 -21.88972,-9.81257 -49.81807,-3.77412 -26.04142,-7.92557 -36.98622,-20.75762 z"
         style="fill:#e3000f;fill-opacity:1;fill-rule:evenodd;stroke:none;stroke-width:2.51659155"
         id="path1742"
         inkscape:connector-curvature="0" />
      <path
         d="m -616.02969,19.195715 46.92923,-29.0132002 12.1667,3.74359 2.13916,7.7547 -18.85178,13.1028002 -34.62861,14.70702 -10.8299,-4.41211 2.27301,-5.74903 z"
         style="fill:#e3000f;fill-opacity:1;fill-rule:evenodd;stroke:none;stroke-width:2.51659155"
         id="path1744"
         inkscape:connector-curvature="0" />
      <path
         d="m -735.4369,-542.30009 145.1445,49.98762 -10.8408,13.5508 -49.08397,32.22088 -146.34923,-54.80561 z"
         style="fill:#e3000f;fill-opacity:1;fill-rule:evenodd;stroke:none;stroke-width:2.51659155"
         id="path1748"
         inkscape:connector-curvature="0" />
      <path
         d="m -534.53569,-446.80847 88.7549,8.2756 62.68691,10.13749 8.89616,5.17218 -4.34459,8.27543 -88.548,-13.44761 -0.41375,5.58589 6.62046,5.17221 66.61771,19.86121 v 5.58599 l -15.93022,9.30988 -121.64996,-41.58439 z"
         style="fill:#e3000f;fill-opacity:1;fill-rule:evenodd;stroke:none;stroke-width:2.51659155"
         id="path1750"
         inkscape:connector-curvature="0" />
      <path
         d="m -491.06849,-332.29809 42.4787,10.09531 10.88199,28.58127 -17.69949,0.26234 -43.92091,-16.78181 1.9666,-11.79962 z"
         style="fill:#e3000f;fill-opacity:1;fill-rule:evenodd;stroke:none;stroke-width:2.51659155"
         id="path1752"
         inkscape:connector-curvature="0" />
      <path
         inkscape:connector-curvature="0"
         id="path1754"
         style="fill:#e3000f;fill-opacity:1;fill-rule:evenodd;stroke:none;stroke-width:2.51659155"
         d="m -738.34809,92.914615 11.51679,-1.14139 8.09289,-6.1214 2.49012,-2.38641 c 6.74398,-0.8301 -5.91411,8.50781 -5.91411,8.50781 l 5.0841,1.45267 c 6.22522,4.4614 -2.80138,4.56512 -2.80138,4.56512 l -6.84791,-0.93369 c -5.49899,-0.93393 -10.37541,-0.31131 -10.37541,-0.31131 z" />
      <path
         inkscape:connector-curvature="0"
         id="path1756"
         style="fill:#e3000f;fill-opacity:1;fill-rule:evenodd;stroke:none;stroke-width:2.51659155"
         d="m -727.5576,69.362195 -1.66011,7.88541 -4.66897,7.7816 c -1.8675,4.46141 3.1128,1.86762 3.1128,1.86762 l 5.914,-8.92292 1.97129,-6.22519 z" />
      <path
         inkscape:connector-curvature="0"
         id="path1758"
         style="fill:#e3000f;fill-opacity:1;fill-rule:evenodd;stroke:none;stroke-width:2.51659155"
         d="m -721.02099,112.0054 5.49889,-5.70642 c 3.1126,-2.28277 4.46141,-4.87659 9.64922,-1.76398 5.1878,3.11269 -2.07511,4.35782 -2.07511,4.35782 l -2.3863,-0.31134 c -3.94271,0 -7.7816,6.22531 -7.7816,6.22531 l -3.63139,-2.80139 z" />
      <path
         inkscape:connector-curvature="0"
         id="path1760"
         style="fill:#e3000f;fill-opacity:1;fill-rule:evenodd;stroke:none;stroke-width:2.51659155"
         d="m -687.90068,110.81653 -4.29533,-4.29543 c -2.82388,-2.38631 -4.65328,-2.14768 -4.65328,-2.14768 l -0.71589,-0.27842 c -0.35793,-1.43172 3.85787,-1.98861 3.85787,-1.98861 l 1.78961,0.43751 c 4.09661,1.59089 7.07962,6.8407 7.07962,6.8407 l -3.14201,1.19319 z" />
      <path
         inkscape:connector-curvature="0"
         id="path1762"
         style="fill:#e3000f;fill-opacity:1;fill-rule:evenodd;stroke:none;stroke-width:2.51659155"
         d="m -684.69079,80.399505 -1.25099,3.93192 c -0.22341,4.33398 3.12759,1.25108 3.12759,1.25108 l 2.36802,-5.5404 -4.468,0.31279 z" />
      <path
         inkscape:connector-curvature="0"
         id="path1764"
         style="fill:#e3000f;fill-opacity:1;fill-rule:evenodd;stroke:none;stroke-width:2.51659155"
         d="m -613.65349,74.863095 7.914,10.3492 c 0.7828,6.34881 -7.65307,-0.86971 -7.65307,-0.86971 l -3.39183,-5.13096 z" />
      <path
         inkscape:connector-curvature="0"
         id="path1766"
         style="fill:#e3000f;fill-opacity:1;fill-rule:evenodd;stroke:none;stroke-width:2.51659155"
         d="m -611.13148,115.47732 5.91391,-8.95771 c 4.17438,-2.95701 3.82651,3.21779 3.82651,3.21779 l -4.78322,8.43592 z" />
      <path
         inkscape:connector-curvature="0"
         id="path1768"
         style="fill:#e3000f;fill-opacity:1;fill-rule:evenodd;stroke:none;stroke-width:2.51659155"
         d="m -577.90958,122.5218 -9.56649,-10.52319 c -1.3046,-5.56599 4.0004,-1.0436 4.0004,-1.0436 l 9.0447,8.87071 -3.73952,2.3482 z" />
      <path
         inkscape:connector-curvature="0"
         id="path1770"
         style="fill:#e3000f;fill-opacity:1;fill-rule:evenodd;stroke:none;stroke-width:2.51659155"
         d="m -552.00317,108.1486 -11.25513,-1.5852 c -2.69487,-1.34742 -5.31056,-0.55488 -5.31056,-0.55488 l -6.26161,4.28016 c -4.04241,0.95113 -0.63423,-3.88379 -0.63423,-3.88379 l 5.94471,-4.35938 -1.18901,-2.615695 c -0.9511,-4.6764 2.2987,-2.06073 2.2987,-2.06073 l 2.5364,2.932715 c 2.37784,2.5364 13.15742,3.24972 13.15742,3.24972 z" />
      <path
         inkscape:connector-curvature="0"
         id="path1772"
         style="fill:#e3000f;fill-opacity:1;fill-rule:evenodd;stroke:none;stroke-width:2.51659155"
         d="m -573.56237,78.425525 -0.0792,4.20097 c -0.63423,3.56659 -4.35943,7.0543 -4.35943,7.0543 l -1.10959,1.26812 c -0.63412,3.64612 5.07259,-0.0792 5.07259,-0.0792 l 2.85351,-3.64614 c 1.1889,-1.0305 4.51789,2.61562 4.51789,2.61562 l 1.50601,1.03052 c 3.88379,1.98139 3.8046,-1.90233 3.8046,-1.90233 l -1.0305,-1.3476 -4.59711,-3.7252 -3.72541,-5.54831 z" />
      <path
         inkscape:connector-curvature="0"
         id="path1774"
         style="fill:#e3000f;fill-opacity:1;fill-rule:evenodd;stroke:none;stroke-width:2.51659155"
         d="m -540.65879,70.955705 -5.4519,1.10892 c -8.59369,1.2936 -11.08868,7.57716 -11.08868,7.57716 l -1.20132,1.66344 c -0.92411,3.97341 5.4519,0.64688 5.4519,0.64688 l 4.71279,-4.2508 c 3.97351,-1.94048 8.1317,-2.40249 8.1317,-2.40249 l -0.0923,-4.4355 z" />
      <path
         d="m -805.00728,118.91352 -2.68012,-3.49944 c 0,-6.70046 7.51959,-3.12676 7.51959,-3.12676 l 8.26403,9.90198 3.49921,4.46712 c 3.42487,14.5179 -7.29622,5.95608 -7.29622,5.95608 z m 84.84439,-75.215505 11.30491,7.9281 c 8.2218,3.0833 30.8318,1.46831 30.8318,1.46831 l 9.54309,-0.5873 c 7.78129,0.73398 7.92812,12.03889 7.92812,12.03889 l -4.25782,9.6901 -0.88078,15.41568 c -3.67051,25.546385 -18.49892,33.474525 -18.49892,33.474525 l -4.55151,3.52356 c -22.02248,5.87275 -39.64069,-8.66217 -39.64069,-8.66217 l -14.38811,-14.09459 c -20.2607,-28.629285 -8.80908,-46.100625 -8.80908,-46.100625 l 1.61509,-6.31309 -3.8173,-4.84508 c -1.02779,-10.13031 13.9476,-14.82862 13.9476,-14.82862 l 3.67051,-0.14669 c 2.49579,0.58719 16.00309,12.039 16.00309,12.039 z m 29.98089,38.01639 c 0.53492,1.71492 0.83481,3.6341 0.83481,5.66049 0,7.27242 -3.85638,13.167805 -8.61349,13.167805 -4.75721,0 -8.61353,-5.895385 -8.61353,-13.167805 0,-2.62318 0.50183,-5.06687 1.36663,-7.11991 -4.41092,-0.71247 -9.03471,-1.75577 -12.6534,-3.27557 l -5.94042,-3.1683 -15.64309,-12.6728 -0.9901,18.41518 c 0,0 -0.7921,6.9305 5.74241,15.84111 l 8.71259,9.108595 c 0,0 7.72251,10.89072 23.76148,10.29671 l 8.71273,-0.9901 c 0,0 9.7026,-3.36621 15.84111,-26.533685 l 0.39589,-6.53452 -5.14819,0.59402 z m -43.04771,-38.16329 16.0032,11.89228 c 12.33262,7.78131 24.8122,7.04731 24.8122,7.04731 l 13.65392,-1.1747 5.13871,-0.73398 c 8.0749,0.44048 3.96409,6.16627 3.96409,6.16627 l -3.8173,1.46823 c -24.3717,2.20229 -35.08941,0.88088 -35.08941,0.88088 l -4.4045,-1.32128 c -16.5904,-7.7814 -29.06987,-22.16952 -29.06987,-22.16952 l -1.76181,-2.20228 c 0.14679,-6.01951 5.72579,-3.37683 5.72579,-3.37683 l 4.11099,2.93643 z m 84.84444,6.90449 6.93378,-5.83888 c 9.41532,-6.05801 10.5101,-1.09482 10.5101,-1.09482 l -0.292,1.45963 c -0.65691,1.60575 -3.4303,4.01428 -3.4303,4.01428 l 1.0644,37.59499 -0.53139,2.86972 c -7.75871,12.328865 -16.04889,4.57026 -16.04889,4.57026 l -1.70059,-2.55085 c -2.33822,-3.40103 -2.01941,-8.50273 -2.01941,-8.50273 l 0.74408,-27.20869 c 0.63761,-2.76342 4.77022,-5.31291 4.77022,-5.31291 z m 1.92557,5.6317 5.84563,-6.1645 c 3.18848,-2.0194 1.3818,4.1451 1.3818,4.1451 l -1.06303,21.89459 v 9.24671 c -1.48787,5.8456 -7.86489,1.16909 -7.86489,1.16909 l 1.1691,-27.74008 m 40.4188,-1.65698 6.6771,2.48457 c 14.44088,2.01853 26.7081,-4.19259 26.7081,-4.19259 l 18.01241,-9.47201 6.21118,-4.96898 -0.93157,-2.79511 1.8634,-15.2174 c 1.24209,-8.0745 6.36638,-3.10552 6.36638,-3.10552 l 18.94419,19.25463 c 7.91922,15.528 -2.6398,19.72058 -2.6398,19.72058 l -1.8633,0.7764 c -3.26096,0.46569 -7.91929,0.46569 -7.91929,0.46569 l 2.01858,17.08081 -0.15518,7.45358 c -1.08709,22.360115 -20.49698,35.403735 -20.49698,35.403735 l -12.42229,8.22981 c -10.09333,4.81377 -29.03754,2.32918 -29.03754,2.32918 l -10.40369,-2.32918 -9.62739,-4.96904 c -5.90053,-5.59001 -6.67692,-9.31666 -6.67692,-9.31666 l -1.39748,-45.031205 c 1.708,-10.86951 7.9192,-15.5279 7.9192,-15.5279 l 3.10549,0.31046 z m 20.79001,26.2963 c 1.3612,1.80808 2.19149,4.21439 2.19149,6.85599 0,5.61726 -3.75407,10.170895 -8.3851,10.170895 -4.63108,0 -8.38509,-4.553635 -8.38509,-10.170895 0,-2.65933 0.84161,-5.07974 2.21911,-6.89192 -2.88063,-0.28599 -5.69082,-0.81981 -8.1199,-1.7262 l -6.98749,-3.57129 -0.77645,1.24211 -0.62108,2.48457 -0.62119,23.136725 c 0,0 2.01872,6.98749 9.16162,11.49059 l 5.74538,2.174 c 0,0 13.81982,3.26081 28.41619,-0.4658 l 9.47203,-4.65852 c 0,0 14.75158,-11.49058 20.18628,-37.422365 l 0.46588,-4.19261 v -5.12411 l -1.70799,-0.46588 c 0,0 -16.4597,10.55899 -27.6398,13.97519 l -7.29819,2.32918 c 0,0 -3.03001,0.51361 -7.3157,0.83034 z m -19.7031,-18.37701 6.2113,2.32918 c 16.61491,2.01869 36.3355,-9.7826 36.3355,-9.7826 l 16.77019,-9.0062 5.59012,5.59012 c 0.93159,2.63969 -4.0372,5.59001 -4.0372,5.59001 l -17.39141,8.22976 -17.39148,6.98772 -5.74522,2.01859 c -9.47211,1.8634 -21.2734,-2.01859 -21.2734,-2.01859 l -6.98762,-5.12421 c -3.88189,-4.96901 1.55281,-8.07458 1.55281,-8.07458 l 2.63981,0.77639 z m 67.08098,-19.72053 -3.72666,-6.36648 c -1.86341,-11.49059 2.95026,-5.2795 2.95026,-5.2795 l 11.02482,10.24848 c 5.90058,11.80131 -3.41609,9.16151 -3.41609,9.16151 z m -164.5671,118.803015 12.10832,-4.24582 c 21.38621,-2.67327 62.58579,-2.20149 62.58579,-2.20149 l 8.49149,0.15729 c 13.9954,1.1008 23.90233,8.8061 23.90233,8.8061 l 5.18919,5.03201 c 0.15719,11.16481 -9.9069,5.9754 -9.9069,5.9754 l -3.45951,-2.98759 c -8.6487,-5.3466 -39.7844,-5.8184 -39.7844,-5.8184 l -38.52648,0.15729 c -14.46703,0 -21.22894,6.6045 -21.22894,6.6045 l -3.45948,2.20163 c -7.8625,-0.31451 -4.56028,-8.33443 -4.56028,-8.33443 z m 171.65243,13.0869 1.6882,-12.94291 0.45021,-6.07737 c -0.56272,-2.92624 -1.35062,-5.96493 -1.35062,-5.96493 v -2.25089 c 1.80078,-5.17729 6.97791,3.93909 6.97791,3.93909 l 3.2638,7.99068 v 11.25472 l -1.23802,4.27672 c -5.73979,4.95197 -9.79148,-0.22511 -9.79148,-0.22511 z m -16.0286,20.90317 32.45729,-11.32229 9.81268,-3.27078 c 11.57391,-1.50971 22.6446,-1.7613 22.6446,-1.7613 h 7.2966 c 12.83192,3.01932 12.07701,11.57388 12.07701,11.57388 l -0.5031,6.79341 c -2.51608,12.832 -20.63179,17.86422 -20.63179,17.86422 l -14.84481,0.50308 -36.23141,0.50321 h -20.63168 c -10.316,-0.25159 -6.2902,-11.57391 -6.2902,-11.57391 z m -125.22732,12.34784 10.77962,3.01186 13.15748,0.31713 c 9.82842,0.63399 17.27909,3.17039 17.27909,3.17039 l 12.9989,1.2682 29.48532,1.26821 h 9.35292 c 7.6091,0.79258 16.64496,4.59708 16.64496,4.59708 l 6.02383,1.2683 c 6.024,0.79254 28.21717,0.79254 28.21717,0.79254 l 44.38034,-0.41071 5.39395,-0.4494 c 13.48523,-2.13524 19.66603,-13.26044 19.66603,-13.26044 l 2.58469,-4.83227 c 1.01142,-6.40543 0.67421,-11.1252 0.67421,-11.1252 l -1.74749,-5.52569 c -0.70684,-4.54401 5.25108,0.303 5.25108,0.303 l 16.35892,20.70116 c 4.03918,5.04904 -0.90884,9.08841 -0.90884,9.08841 l -3.53436,2.22152 c -3.13042,1.00968 -8.07842,0 -8.07842,0 l -5.0492,0.9089 -17.9746,5.85692 -7.06858,2.12058 c -5.1502,1.41367 -16.46013,0.90869 -16.46013,0.90869 l -8.7194,0.0591 c -9.3726,1.0287 -28.4603,9.4868 -28.4603,9.4868 l -13.9523,3.5909 -9.9514,1.06619 c -10.48459,0.17769 -23.27926,-7.46358 -23.27926,-7.46358 l -5.33112,-3.02091 c -13.68319,-5.68669 -37.31789,-3.02111 -37.31789,-3.02111 h -11.72852 c -6.04188,0 -19.36979,-5.86418 -19.36979,-5.86418 l -17.05949,-7.28588 -14.74953,-7.10814 -14.43991,-8.65327 c -4.14309,-5.23971 5.60532,-2.68084 5.60532,-2.68084 z m 202.19411,-177.340835 3.3265,-1.10887 c 8.07911,-0.6336 11.24728,9.18787 11.24728,9.18787 l 0.95041,6.65321 c -0.15838,11.40561 -6.81159,16.47473 -6.81159,16.47473 l -3.48509,1.74247 c -8.71262,0.15851 -8.23733,-14.41527 -8.23733,-14.41527 l -0.31678,-11.24723 c 1.4256,-6.17799 3.3266,-7.28691 3.3266,-7.28691 z m -260.9947,-110.51519 7.1162,-3.16256 c 6.32559,-2.17454 12.45359,5.73248 12.45359,5.73248 l 1.97671,3.55809 c -0.19773,8.8954 -10.47682,12.45352 -10.47682,12.45352 l -5.73261,0.9883 c -12.05819,0.19769 -11.06978,-9.09291 -11.06978,-9.09291 l 1.38381,-5.33728 z m -115.03419,109.3093 5.3987,-4.6626 c 7.73028,-3.92649 10.307,3.68091 10.307,3.68091 l 1.34969,8.5892 c -0.1227,15.95099 -6.01239,21.9634 -6.25782,22.69958 -0.24528,0.73623 -4.04907,1.34975 -4.04907,1.34975 h -2.57673 c -6.01239,-2.20872 -7.48467,-13.00634 -7.48467,-13.00634 l 0.24528,-6.50309 c 1.10441,-4.5399 3.06762,-12.14741 3.06762,-12.14741 z m 199.02318,-40.7982002 33.31363,15.75642 2.58847,1.8007 -1.01291,3.8264802 -3.4889,0.45043 -37.59027,-18.1200202 c -2.1384,-4.05162 3.60141,-5.0644898 3.60141,-5.0644898 z m 4.83941,-12.0424798 28.024,12.9428898 7.42807,4.27672 c 4.27673,2.02578 3.82662,3.71397999 3.82662,3.71397999 l -2.3635,2.13839001 -2.58868,-0.22508 -36.91502,-18.4575998 c -2.02579,-2.02581 1.01289,-4.05169 1.01289,-4.05169 z m 41.51439,-114.804015 9.09,2.43883 1.99541,131.9156648 -6.65131,-71.1679598 z m 17.07142,5.54271 h 5.76437 l 1.55192,124.1559948 -5.98602,2.2171 z m -32.81262,153.421295 h 6.42948 c 3.99074,-0.4435 37.02524,-18.8450802 37.02524,-18.8450802 l 3.99068,-3.32560001 c 3.10388,-3.10390999 0.66501,-7.98152999 0.66501,-7.98152999 l 9.09007,2.66052 c 4.87752,4.21239999 -11.08535,14.4109002 -11.08535,14.4109002 l -31.03901,15.29779 c -11.75052,4.21251 -15.07612,-2.217 -15.07612,-2.217 z m -142.85531,-411.837895 221.15753,77.716 102.14108,29.31001 -57.7318,152.32351 -244.25039,-52.84692 c -5.1501,-74.82891 -9.97892,-128.7525 -22.2045,-201.61758 l 0.8612,-4.48543 0.0268,-0.39959 z m 0.4711,-10.69608 113.90673,-35.14143 29.08258,76.34181 -0.303,5.75588 z m 123.29802,-34.83843 15.75292,2.12072 2.42369,5.75589 -10.3001,17.87359 -9.39123,-24.53837 z m 20.3604,16.204 -0.6028,40.38953 -8.07779,-20.3756 z m 12.61181,-8.7122 7.5088,1.15881 c -1.11313,22.25851 -3.12163,54.72472 -0.71541,77.34249 l -6.5419,-1.2581 z m 17.30111,5.37623 9.36916,4.6881 0.75491,64.15969 -10.06438,4.5289 c -0.10711,-25.38262 -0.75571,-49.71642 -0.0597,-73.37669 z m 22.33988,8.5084 8.41592,1.71499 -2.76773,55.35348 -6.79341,2.51601 z m -15.54702,70.28119 4.13644,-1.43182 -0.47731,4.29543 -5.88632,-0.1591 z m 17.49983,-4.29541 6.20437,-2.5455 50.11251,19.56779 -0.31811,10.18169 -6.2044,0.79542 -52.65809,-17.49962 v -8.1135 z m 69.9861,18.4022 40.49676,9.9311 9.8208,19.42092 -0.88278,1.98628 -52.79478,-16.73457 1.48408,-11.40363 z m -54.71033,-82.27618 90.51512,30.10238 44.84249,15.57031 0.62269,44.84229 -77.6437,-22.421 -58.9594,-18.68439 z m 144.0769,29.06437 10.79539,-7.05838 -0.20756,9.96488 -8.09652,5.19003 z m 0.41523,23.25172 10.79538,-7.68142 1.03798,33.00892 -11.41807,-2.69881 z m -226.6697,-83.5256 9.3423,3.4526 -13.09942,0.10149 z m 4.36658,-4.468 4.16329,-3.24951 12.49011,5.7881 -3.65559,3.2495 z m 19.9028,7.9206 6.702,-3.351 165.07317,54.14098 21.13503,7.5481 0.75469,6.41611 z m -0.10649,-22.83111 15.45611,7.13359 -7.13359,2.9724 -14.9805,-5.70678 z m 22.11411,13.67282 5.2311,-2.49682 26.39431,9.74919 -5.11233,3.44781 -27.4642,-10.46241 z m 28.7075,-10.11851 48.92461,-16.47289 9.38948,25.86249 -52.05439,-1.3179 -9.22483,-5.9302 z m 24.8031,16.24418 64.4634,4.98613 49.3268,6.7668 22.43757,3.20527 15.22899,4.90301 -3.29797,3.46661 -35.43703,-4.63 -32.76578,-5.8765 -30.27292,-4.62989 -51.46389,-3.38353 z m 65.888,19.94433 1.78067,-2.67113 42.56003,8.1916 0.17817,5.69832 -42.38199,-8.72571 z m 53.95677,6.76687 7.47932,0.89041 -0.53422,9.61609 -8.01341,-1.06839 z m -104.70838,-11.93097 20.47867,0.17797 66.60021,20.65683 30.27293,10.32849 -9.97222,7.47899 -107.5576,-36.32729 z m -220.80372,-107.95092 131.47862,43.41851 4.28069,5.50369 -25.37849,14.67672 -26.2957,17.12288 -119.55389,-39.90129 -18.34572,-6.575 33.9398,-22.01492 z m 2.59902,16.81702 c 11.3986,0 20.63898,4.65438 20.63898,10.3958 0,5.74149 -9.24038,10.39597 -20.63898,10.39597 -11.39861,0 -20.63913,-4.65448 -20.63913,-10.39597 0,-5.74142 9.24052,-10.3958 20.63913,-10.3958 z m -71.22329,15.6185 25.39869,-15.18081 45.2507,-30.36171 31.52958,12.55331 123.1985,44.375 -19.85179,20.14379 18.68421,8.46632 75.90431,-27.7343 28.61011,43.49898 81.49817,11.9308 19.04788,5.90501 c 7.0479,6.2859 0.19061,13.33359 0.19061,13.33359 l -4.57158,4.19061 -13.52412,-2.28572 -3.42858,11.23823 11.80971,9.52419 -1.41603,68.2996 -17.15518,-1.55961 -1.14922,16.90902 -28.35611,-7.66752 0.36563,20.59339 c 11.81978,6.702 8.04227,14.50073 8.04227,14.50073 l -64.20257,170.00286 -75.0307,-17.20628 -5.3593,3.1028 -1.7335,59.745905 44.34142,24.3708 1.01547,-13.87771 c 6.4311,-23.01698 32.1559,-20.98612 32.1559,-20.98612 l 18.27818,9.13921 14.89334,18.95494 c 9.47746,32.49456 -13.2009,41.2951598 -13.2009,41.2951598 l -14.89329,6.43122999 16.92428,23.35540021 8.80052,2.70778 c 19.63206,19.2936 8.46206,38.2488 8.46206,38.2488 l -13.68607,9.96939 -6.62602,11.04299 13.25171,27.484915 1.96321,8.34358 c 1.227,18.15981 -15.46021,25.03094 -15.46021,25.03094 l 1.4724,4.9081 c 2.69931,5.88957 0.7361,13.25171 0.7361,13.25171 l 8.12559,13.25647 13.42652,5.10212 18.79727,25.91318 2.25171,5.01219 c 5.89529,15.79933 -12.9695,16.50683 -12.9695,16.50683 l -10.13989,-0.3537 c -7.0743,0.2358 -30.5375,10.25768 -30.5375,10.25768 l -3.53711,0.4716 c -5.4238,0.118 -19.69018,-0.2358 -19.69018,-0.2358 l -7.3006,2.26301 -13.44681,6.38159 c -23.70291,9.80033 -43.3033,4.2164 -43.3033,4.2164 l -17.36399,-7.75467 c -6.84072,-4.13634 -21.1587,-2.70452 -21.1587,-2.70452 h -17.49961 c -14.79522,0 -35.7947,-8.1135 -35.7947,-8.1135 l -32.2948,-16.54503 -13.40231,-9.62597 -9.98122,-8.66801 -34.40888,-3.02059 -43.65851,-0.7734 c -5.52249,-1.27442 -16.42547,-7.08002 -16.42547,-7.08002 l -5.38081,-4.67267 c -5.38082,-7.9297 3.3983,-11.75282 3.3983,-11.75282 l 2.8321,-1.98242 c 2.54868,-3.96478 -5.23931,-2.69039 -5.23931,-2.69039 l -4.1063,0.5664 c -5.66409,0 -10.62009,-5.38078 -10.62009,-5.38078 L -836.91,156.2838 c -16.08469,-21.17818 -5.09347,-35.5205 -5.09347,-35.5205 l 2.81499,-3.21691 c 3.619,-3.61918 8.04231,-6.83609 8.04231,-6.83609 l -2.15921,-6.80371 c -5.53519,-15.347975 -5.03199,-33.715295 -5.03199,-33.715295 l -10.06433,-2.51608 c -14.84467,-10.31592 -10.81909,-33.21222 -10.81909,-33.21222 l 5.0322,-8.55459 c 16.60592,-15.85121 25.4122,-6.2901 25.4122,-6.2901 l 3.77409,-0.50318 18.61901,-26.4187302 -8.47718,-5.1426798 c -18.39443,-11.43841 -18.2397,-25.3502 -18.2397,-25.3502 l 1.391,-9.58369 c 13.29348,-20.09473 46.21787,-24.26811 46.21787,-24.26811 l 11.4385,-0.46371 c 20.40389,3.0915 23.18622,13.75722 23.18622,13.75722 l 2.47328,10.04729 6.33741,-6.33759 -1.70529,-4.89413 c -1.59212,-17.38188 9.42079,-23.08738 9.42079,-23.08738 l 11.2782,-4.51131 c 11.41098,-1.32688 19.2394,11.41101 19.2394,11.41101 l 16.18772,-0.66342 -2.06821,-7.00151 c -3.11531,-20.107095 16.70869,-25.629585 16.70869,-25.629585 l 8.35431,-2.5487 c 28.31991,-0.14169 35.68302,13.876735 35.68302,13.876735 l 2.12407,6.79678 c 0.99109,4.24791 0.99109,7.64627 0.99109,7.64627 l 15.71762,0.84971 -0.31803,-56.532575 -141.95368,-32.79251 c 0.13889,-78.65772 -0.38361,-104.8394 -14.91901,-184.16419 l -10.36348,-40.91351 c -0.3774,-6.416 3.01928,-9.81269 3.01928,-9.81269 l 99.45942,-31.98449 2.1577,-1.26933 c 3.42731,-0.88858 -1.39619,-5.07728 -1.39619,-5.07728 l -127.18063,-46.77279 c -6.7933,-5.28381 -1.08087,-10.5954 -1.08087,-10.5954 z m 231.91538,455.587975 5.44513,-4.29889 39.26197,21.49379 6.30481,-1.71939 2.0062,-16.3354 2.00612,-10.3169 c 8.02418,-14.61582 30.66439,-8.31101 30.66439,-8.31101 l 8.59748,4.87201 c 17.48152,22.64 16.33519,29.8047 16.33519,29.8047 l -0.28649,3.15238 c -2.86589,8.88413 -22.92678,16.04862 -22.92678,16.04862 l -14.61583,5.4451798 -2.57908,5.15842 17.19491,30.6644102 1.43298,5.73167 -0.85969,8.59753 c 0.57309,13.46946 5.73149,26.93887 5.73149,26.93887 l -5.44489,14.90229 -13.46951,3.72562 -8.59759,2.86578 -1.71939,5.73173 13.756,-1.71961 c 24.64607,0 23.21328,14.902385 23.21328,14.902385 l 1.76289,12.4128 c -3.33867,17.25051 -15.5811,14.09731 -15.5811,14.09731 l -14.28269,-7.4196 -5.00819,-3.70988 -2.78241,-6.12114 -0.55642,-11.31488 c -0.55647,-9.459905 -6.30666,-2.22578 -6.30666,-2.22578 l -0.74189,10.94388 c -0.37103,7.04861 7.04855,12.2423 7.04855,12.2423 l 0.18542,3.1533 c -0.37089,5.37919 14.65368,9.08889 14.65368,9.08889 l 3.89531,4.63741 c 10.20201,15.21002 4.26643,20.21818 4.26643,20.21818 l -8.53271,2.41142 -23.18599,5.00822 -1.85502,-12.05683 c -1.48389,-9.64538 -7.7906,-17.80699 -7.7906,-17.80699 l -2.41128,-2.9678 c -4.63722,-5.93569 -9.46002,4.45169 -9.46002,4.45169 l -0.92747,12.4278 c 0,7.23421 -3.70973,24.85559 -3.70973,24.85559 l -15.9848,8.92662 c -7.76309,3.9991 -14.82048,13.40898 -14.82048,13.40898 l -6.8222,2.58773 c -12.23282,1.88201 -39.52142,-0.47043 -39.52142,-0.47043 l -14.35011,-2.35249 -11.76228,-3.29351 -16.70251,0.94102 c -11.99758,-1.64661 -31.75819,-9.40991 -31.75819,-9.40991 l -14.11492,-4.94008 -11.76229,-4.9402 -57.72552,0.4377 h -15.98788 c -9.97391,0 -13.05409,-5.7205 -13.05409,-5.7205 v -2.34688 c 0.58671,-3.37352 3.22668,-5.57361 9.24049,-9.82724 6.01391,-4.25357 8.06721,-18.04119 8.06721,-18.04119 l -6.16031,-2.2002 c -3.3735,-0.88008 -4.84028,5.13361 -4.84028,5.13361 l -2.2001,3.3737 c -6.45383,6.16029 -16.57452,3.66691 -16.57452,3.66691 l -4.6936,-1.76022 c -8.9473,-6.01371 -10.8542,-12.0274 -10.8542,-12.0274 l -1.90669,-5.13368 c -0.88011,-14.66763 4.54688,-19.80132 4.54688,-19.80132 l 9.0939,-5.13371 4.4044,-2.57656 -3.6352,-4.72594 c -6.66468,-9.088375 -6.54357,-33.323865 -6.54357,-33.323865 l 3.65457,-20.56172 1.3354,-13.79842 6.08312,-12.0178 16.06829,-23.8676602 c 2.11349,-1.50972 3.32108,-8.15203 3.32108,-8.15203 h 6.03871 c 8.75581,-0.9058 24.75802,-10.8693998 24.75802,-10.8693998 l 5.43468,-3.62318 c 3.92511,-6.94441 -6.64228,-1.50971 -6.64228,-1.50971 l -8.75601,5.4347 c -14.79441,7.2462998 -32.00428,0 -32.00428,0 l -9.66181,-10.8694 -4.83069,-7.2463 c -3.92522,-15.09628 11.17117,-23.5503 11.17117,-23.5503 l 17.20991,-5.73659 19.02139,-0.30189 c 17.20991,4.83079 22.34282,23.24841 22.34282,23.24841 l -0.60392,16.30407 12.68092,-15.09638 14.19069,-11.77523 c 13.8888,0 23.8524,-12.37898 23.8524,-12.37898 l 7.54811,-1.8115 c 12.9829,-1.20782 16.30409,10.56738 16.30409,10.56738 l 8.454,-6.34047 -3.6231,-4.8309 2.71731,-4.83071 -6.0385,-7.5483 c -9.9636,-13.2848 8.1521,-23.248515 8.1521,-23.248515 l 9.05781,-2.11339 c 30.79669,-0.30202 27.17349,21.436785 27.17349,21.436785 l -2.41551,16.00232 -1.20759,6.64229 c -0.30202,9.66179 9.6616,12.681 9.6616,12.681 l 2.11359,-3.92499 -3.6232,-3.01929 c -2.41551,-9.9636 8.45389,-16.30413 8.45389,-16.30413 l 6.9445,-0.90577 c 7.85013,3.01926 7.85013,14.4925 7.85013,14.4925 v 44.6854 l -37.13721,-16.00232 c -9.35979,-2.7173 -16.0021,12.68103 -16.0021,12.68103 l -3.92511,5.7366898 c -3.3212,7.54817 10.8694,12.68087 10.8694,12.68087 l 24.75812,14.1905902 -9.05782,5.13291 13.74421,8.62304 c 8.65968,5.91397 31.68201,-6.97013 31.68201,-6.97013 L -555.9521,8.6660148 c 11.40563,-7.81503001 2.74571,-16.6859 2.74571,-16.6859 l -15.62978,-5.7027998 -1.05611,-9.5046 -1.9009,-11.82812 0.2113,-6.96989 z m -92.89038,-11.948 6.0537,0.74121 c 9.0189,1.17379 12.41647,-1.72951 12.41647,-1.72951 l 2.22391,-1.85322 c 3.4592,-1.42086 2.59451,4.69482 2.59451,4.69482 l -1.1738,2.03851 c -5.0654,5.0654 -21.12649,3.45922 -21.12649,3.45922 l -4.8183,-0.67953 c -4.69481,-1.6678 -1.1737,-5.55951 -1.1737,-5.55951 l 2.28558,-1.05018 z m 152.12077,33.40989 10.26962,7.58661 c 6.10629,4.5335 0.3702,9.0668998 0.3702,9.0668998 l -2.22048,0.2775 -10.08462,-8.6967998 -7.30899,-5.73612 c -1.20269,-3.60828 3.33068,-4.71847 3.33068,-4.71847 z"
         style="fill:#1a1a18;fill-opacity:1;fill-rule:evenodd;stroke:none;stroke-width:2.51659155"
         id="path1776"
         inkscape:connector-curvature="0" />
    </g>
  </g>
</svg>
