<?xml version="1.0" encoding="UTF-8" standalone="no"?>
<!-- Generator: Adobe Illustrator 16.0.0, SVG Export Plug-In . SVG Version: 6.00 Build 0)  -->

<svg
   xmlns:dc="http://purl.org/dc/elements/1.1/"
   xmlns:cc="http://creativecommons.org/ns#"
   xmlns:rdf="http://www.w3.org/1999/02/22-rdf-syntax-ns#"
   xmlns:svg="http://www.w3.org/2000/svg"
   xmlns="http://www.w3.org/2000/svg"
   xmlns:sodipodi="http://sodipodi.sourceforge.net/DTD/sodipodi-0.dtd"
   xmlns:inkscape="http://www.inkscape.org/namespaces/inkscape"
   version="1.1"
   id="Capa_1"
   x="0px"
   y="0px"
   width="253.88113"
   height="294.56351"
   viewBox="0 0 253.88114 294.5635"
   xml:space="preserve"
   sodipodi:docname="comm.svg"
   inkscape:version="0.92.4 (5da689c313, 2019-01-14)"><metadata
   id="metadata1148"><rdf:RDF><cc:Work
       rdf:about=""><dc:format>image/svg+xml</dc:format><dc:type
         rdf:resource="http://purl.org/dc/dcmitype/StillImage" /><dc:title></dc:title></cc:Work></rdf:RDF></metadata><defs
   id="defs1146">
	
</defs><sodipodi:namedview
   pagecolor="#ffffff"
   bordercolor="#666666"
   borderopacity="1"
   objecttolerance="10"
   gridtolerance="10"
   guidetolerance="10"
   inkscape:pageopacity="0"
   inkscape:pageshadow="2"
   inkscape:window-width="2880"
   inkscape:window-height="1527"
   id="namedview1144"
   showgrid="false"
   fit-margin-top="0"
   fit-margin-left="0"
   fit-margin-right="0"
   fit-margin-bottom="0"
   inkscape:zoom="3.4290612"
   inkscape:cx="67.722817"
   inkscape:cy="145.72309"
   inkscape:window-x="0"
   inkscape:window-y="0"
   inkscape:window-maximized="1"
   inkscape:current-layer="Capa_1" />
<g
   id="g1726"
   style="stroke:#4d4d4d;stroke-width:0.9329713"
   transform="matrix(1.1488502,0,0,1,-234.87912,-100.15941)"><path
     inkscape:connector-curvature="0"
     id="path1707"
     d="m 373.44655,343.24301 a 39.336999,39.337004 0 0 1 0.003,0.48077 v 0 a 39.336999,39.337004 0 0 1 -39.337,39.337 39.336999,39.337004 0 0 1 -39.337,-39.337 39.336999,39.337004 0 0 1 0.003,-0.48116"
     style="fill:none;fill-opacity:1;stroke:#4d4d4d;stroke-width:23.3242836;stroke-linecap:butt;stroke-linejoin:bevel;stroke-miterlimit:4;stroke-dasharray:none;stroke-opacity:0.98319325" /><path
     inkscape:connector-curvature="0"
     id="path1695"
     d="m 216.11043,167.68798 a 39.336999,39.337004 0 0 1 39.33406,-38.85584 39.336999,39.337004 0 0 1 39.33406,38.85623"
     style="fill:none;fill-opacity:1;stroke:#4d4d4d;stroke-width:23.3242836;stroke-linecap:butt;stroke-linejoin:bevel;stroke-miterlimit:4;stroke-dasharray:none;stroke-opacity:0.98319325" /><path
     sodipodi:nodetypes="cc"
     inkscape:connector-curvature="0"
     id="path1709"
     d="M 294.77855,167.68837 V 343.24262"
     style="fill:none;fill-opacity:1;stroke:#4d4d4d;stroke-width:23.3242836;stroke-linecap:round;stroke-linejoin:bevel;stroke-miterlimit:4;stroke-dasharray:none;stroke-opacity:0.98319325" /><path
     style="fill:none;fill-opacity:1;stroke:#4d4d4d;stroke-width:23.3242836;stroke-linecap:round;stroke-linejoin:bevel;stroke-miterlimit:4;stroke-dasharray:none;stroke-opacity:0.98319325"
     d="m 373.44955,223.79983 v 120.8649"
     id="path1717"
     inkscape:connector-curvature="0"
     sodipodi:nodetypes="cc" /><path
     style="fill:none;fill-opacity:1;stroke:#4d4d4d;stroke-width:23.3242836;stroke-linecap:round;stroke-linejoin:bevel;stroke-miterlimit:4;stroke-dasharray:none;stroke-opacity:0.98319325"
     d="m 216.11043,167.68798 v 163.31"
     id="path1719"
     inkscape:connector-curvature="0"
     sodipodi:nodetypes="cc" /></g>
<g
   id="g1113"
   transform="translate(-179.29107,-100.15941)">
</g>
<g
   id="g1115"
   transform="translate(-179.29107,-100.15941)">
</g>
<g
   id="g1117"
   transform="translate(-179.29107,-100.15941)">
</g>
<g
   id="g1119"
   transform="translate(-179.29107,-100.15941)">
</g>
<g
   id="g1121"
   transform="translate(-179.29107,-100.15941)">
</g>
<g
   id="g1123"
   transform="translate(-179.29107,-100.15941)">
</g>
<g
   id="g1125"
   transform="translate(-179.29107,-100.15941)">
</g>
<g
   id="g1127"
   transform="translate(-179.29107,-100.15941)">
</g>
<g
   id="g1129"
   transform="translate(-179.29107,-100.15941)">
</g>
<g
   id="g1131"
   transform="translate(-179.29107,-100.15941)">
</g>
<g
   id="g1133"
   transform="translate(-179.29107,-100.15941)">
</g>
<g
   id="g1135"
   transform="translate(-179.29107,-100.15941)">
</g>
<g
   id="g1137"
   transform="translate(-179.29107,-100.15941)">
</g>
<g
   id="g1139"
   transform="translate(-179.29107,-100.15941)">
</g>
<g
   id="g1141"
   transform="translate(-179.29107,-100.15941)">
</g>
<g
   id="g1788"
   transform="matrix(1.2930605,0,0,1.2099655,-25.558162,5.8558049e-7)"
   style="stroke-width:0.79947346"><rect
     y="9.9004812"
     x="143.2968"
     height="58.033375"
     width="53.075752"
     id="rect1777"
     style="fill:#ffffff;fill-opacity:1;stroke:none;stroke-width:19.98683739;stroke-linecap:round;stroke-linejoin:bevel;stroke-miterlimit:4;stroke-dasharray:none;stroke-opacity:0.98319325" /><g
     transform="matrix(0.24413422,-0.26365278,0.24413422,0.26365278,35.47101,116.54033)"
     id="g1109"
     style="stroke-width:2.22822261">
		<g
   id="g1107"
   style="stroke-width:2.22822261">
			
			<path
   d="m 550.588,128.526 c 0,-12.864 -5,-24.967 -14.104,-34.064 L 455.877,13.866 C 437.666,-4.345 405.924,-4.335 387.75,13.874 l -76.141,76.151 c -5.732,-5.329 -13.018,-8.078 -20.316,-8.078 -7.643,0 -15.3,2.919 -21.14,8.755 L 109.12,251.712 c -5.605,5.604 -8.747,13.211 -8.747,21.136 0,7.928 3.142,15.534 8.747,21.14 L 256.39,441.23 c 5.836,5.836 13.478,8.757 21.138,8.757 7.658,0 15.301,-2.921 21.137,-8.757 L 459.683,280.221 c 5.605,-5.607 8.746,-13.212 8.746,-21.137 0,-7.579 -2.943,-14.819 -8.088,-20.343 l 76.145,-76.151 c 9.102,-9.095 14.102,-21.199 14.102,-34.064 z m -39.957,8.213 -76.07,76.08 -97.029,-97.012 76.09,-76.09 c 4.318,-4.337 12.051,-4.348 16.406,0 l 80.605,80.596 c 4.533,4.527 4.533,11.9 -0.002,16.426 z"
   id="path1101"
   inkscape:connector-curvature="0"
   style="stroke-width:2.22822261" />
			<path
   d="m 387.248,88.58 c -8.033,8.043 -8.033,21.094 0,29.119 8.037,8.042 21.064,8.042 29.117,0 8.033,-8.025 8.033,-21.076 0,-29.119 -8.049,-8.033 -21.08,-8.033 -29.117,0 z"
   id="path1103"
   inkscape:connector-curvature="0"
   style="stroke-width:2.22822261" />
			<path
   d="m 428.971,130.32 c -8.049,8.043 -8.049,21.083 0,29.127 8.035,8.042 21.086,8.042 29.119,0 8.035,-8.044 8.035,-21.083 0,-29.127 -8.035,-8.051 -21.084,-8.051 -29.119,0 z"
   id="path1105"
   inkscape:connector-curvature="0"
   style="stroke-width:2.22822261" />
		</g>
	</g><rect
     ry="5.5385513"
     y="73.504944"
     x="136.73523"
     height="77.803467"
     width="66.198875"
     id="rect1779"
     style="fill:#aad400;fill-opacity:1;stroke:none;stroke-width:19.98683739;stroke-linecap:round;stroke-linejoin:bevel;stroke-miterlimit:4;stroke-dasharray:none;stroke-opacity:0.98319325" /></g></svg>