<?xml version="1.0" encoding="UTF-8" standalone="no"?>
<!-- Created with Inkscape (http://www.inkscape.org/) -->

<svg
   xmlns:dc="http://purl.org/dc/elements/1.1/"
   xmlns:cc="http://creativecommons.org/ns#"
   xmlns:rdf="http://www.w3.org/1999/02/22-rdf-syntax-ns#"
   xmlns:svg="http://www.w3.org/2000/svg"
   xmlns="http://www.w3.org/2000/svg"
   xmlns:sodipodi="http://sodipodi.sourceforge.net/DTD/sodipodi-0.dtd"
   xmlns:inkscape="http://www.inkscape.org/namespaces/inkscape"
   width="310.375"
   height="319.1384"
   id="svg2"
   version="1.1"
   inkscape:version="0.48.5 r10040"
   sodipodi:docname="feature.svg">
  <defs
     id="defs4" />
  <sodipodi:namedview
     id="base"
     pagecolor="#ffffff"
     bordercolor="#666666"
     borderopacity="1.0"
     inkscape:pageopacity="0.0"
     inkscape:pageshadow="2"
     inkscape:zoom="3.959798"
     inkscape:cx="-103.07886"
     inkscape:cy="133.17814"
     inkscape:document-units="px"
     inkscape:current-layer="layer1"
     showgrid="false"
     inkscape:window-width="3840"
     inkscape:window-height="2103"
     inkscape:window-x="2877"
     inkscape:window-y="-3"
     inkscape:window-maximized="1"
     fit-margin-top="0"
     fit-margin-left="0"
     fit-margin-right="0"
     fit-margin-bottom="0" />
  <metadata
     id="metadata7">
    <rdf:RDF>
      <cc:Work
         rdf:about="">
        <dc:format>image/svg+xml</dc:format>
        <dc:type
           rdf:resource="http://purl.org/dc/dcmitype/StillImage" />
        <dc:title />
      </cc:Work>
    </rdf:RDF>
  </metadata>
  <g
     inkscape:label="Layer 1"
     inkscape:groupmode="layer"
     id="layer1"
     transform="translate(628.37981,-5.4601991)">
    <path
       sodipodi:type="arc"
       style="color:#000000;fill:#ffcc00;fill-opacity:1;fill-rule:nonzero;stroke:none;stroke-width:6.69999980999999956;marker:none;visibility:visible;display:inline;overflow:visible;enable-background:accumulate"
       id="path3011"
       sodipodi:cx="165.79129"
       sodipodi:cy="190.21768"
       sodipodi:rx="126.90041"
       sodipodi:ry="170.84206"
       d="m 292.6917,190.21768 a 126.90041,170.84206 0 1 1 -253.800823,0 126.90041,170.84206 0 1 1 253.800823,0 z"
       transform="matrix(1.1164179,0,0,0.80709535,-648.56477,9.1978473)" />
    <path
       style="fill:#ececec;stroke:none;stroke-width:1px;stroke-linecap:butt;stroke-linejoin:miter;stroke-opacity:1"
       d="m 124.5013,162.05968 13.38452,-3.78807 9.34391,-20.45559 15.65737,-18.94036 12.37437,-23.48605 2.0203,-19.192898 11.61675,-0.757615 8.33376,7.323606 6.31346,12.374369 -13.13199,45.961938 43.94164,7.07107 13.8896,9.34391 -2.77792,40.65864 -15.90991,38.13326 -24.49619,10.10152 -50.25509,-4.04061 -30.80966,-7.57614 z"
       id="path3015"
       inkscape:connector-curvature="0"
       transform="translate(-628.37981,5.4601991)" />
    <rect
       style="color:#000000;fill:#ffffff;fill-opacity:1;fill-rule:nonzero;stroke:none;stroke-width:6.69999980999999956;marker:none;visibility:visible;display:inline;overflow:visible;enable-background:accumulate"
       id="rect3013"
       width="27.02158"
       height="38.638336"
       x="82.07489"
       y="201.96071"
       transform="translate(-628.37981,5.4601991)" />
    <path
       id="path2988"
       style="fill:#5b9699;fill-opacity:1"
       d="m -459.19231,5.460199 c -85.70613,0 -155.1875,69.481369 -155.1875,155.187501 0,85.70613 69.48137,155.1875 155.1875,155.1875 85.70613,0 155.1875,-69.48137 155.1875,-155.1875 0,-85.706132 -69.48137,-155.187501 -155.1875,-155.187501 z m -56.50324,243.696191 -21.27373,0.26996 c -16.4745,0.20905 -21.3836,-0.0165 -21.7608,-1 -0.26787,-0.69848 -0.36971,-21.29495 -0.22627,-45.76996 l 0.2608,-44.5 20.61107,-0.26987 c 16.5885,-0.21719 20.8354,4.4e-4 21.7605,1.11512 0.83663,1.00813 1.07855,13.46196 0.88893,45.76986 z m -20.143,-7.45374 c 5.51225,2.32181 13.643,-2.99848 13.643,-8.92718 0,-3.41147 -3.29842,-7.90184 -6.77537,-9.22377 -3.23399,-1.22957 -8.6893,0.50231 -10.72153,3.40372 -3.21104,4.5844 -1.10054,12.66038 3.8539,14.74723 z m 119.94931,13.50219 c -6.64715,1.50526 -36.45429,2.78354 -42.80631,1.83575 -8.28362,-1.23601 -13.78834,-2.749 -21.94392,-6.03137 -4.91915,-1.9798 -13.24415,-4.33491 -18.5,-5.23357 l -9.55608,-1.63392 0,-40.46994 0,-40.46993 6.84866,-1.12335 c 3.76676,-0.61785 7.24723,-1.75308 7.73437,-2.52274 0.48715,-0.76966 2.0207,-4.78476 3.40789,-8.92245 3.09551,-9.2332 7.84067,-16.45106 14.5153,-22.07918 4.30189,-3.62741 6.1222,-6.41206 12.03128,-18.40501 5.63295,-11.432516 6.9625,-15.030926 6.9625,-18.843956 0,-9.89036 4.85162,-15.64878 13.18452,-15.64878 5.99935,0 9.35352,1.63938 14.09735,6.8902 11.5355,12.76842 11.57267,28.337606 0.11938,50.007786 -2.44121,4.6189 -4.2715,8.56507 -4.0673,8.76927 0.2042,0.2042 4.98081,0.6132 10.61468,0.90889 31.04661,1.62945 49.87165,13.75284 47.60194,30.6558 -0.80666,6.00711 -0.80402,8.07133 0.0202,15.81057 0.43492,4.08381 0.0742,7.11045 -1.37047,11.5 -1.0784,3.27662 -2.25245,8.29971 -2.60899,11.16244 -0.87802,7.04984 -3.00398,12.74774 -6.39345,17.13537 -1.55491,2.01282 -3.39176,5.6161 -4.08188,8.00729 -2.62643,9.10031 -11.36061,15.42881 -25.80967,18.70083 z m -43.30631,-8.20966 c 1.375,0.21386 8.40355,0.45013 15.61901,0.52503 15.1746,0.15752 28.35212,-1.79849 36.16133,-5.36762 4.30954,-1.96964 5.63843,-3.20232 7.22804,-6.70477 1.07123,-2.36029 1.95756,-5.21974 1.96966,-6.35434 0.0121,-1.1346 1.38846,-3.3721 3.05863,-4.97222 3.53184,-3.38372 6.43091,-12.05951 5.4786,-16.39532 -0.4545,-2.06935 0.0953,-4.34096 1.92421,-7.95011 2.95179,-5.82509 3.26971,-11.1103 0.90872,-15.10713 -1.53573,-2.59979 -1.53573,-3.08635 0,-6.92453 3.64713,-9.11506 1.0523,-14.86077 -8.8206,-19.5314 -7.82855,-3.70349 -16.50495,-5.50494 -29.5276,-6.13068 -14.90531,-0.71621 -15.68271,-0.91145 -17.48181,-4.39053 -2.47256,-4.7814 -1.83638,-7.61011 4.66661,-20.74959 5.7955,-11.70998 6.20808,-13.00923 6.55454,-20.64108 0.34378,-7.572746 0.16026,-8.501876 -2.61415,-13.235376 -3.34638,-5.70933 -8.31654,-8.91226 -11.32837,-7.30038 -1.401,0.74979 -1.79682,2.19636 -1.79682,6.56668 0,4.92291 -0.86953,7.37995 -7.14479,20.189256 -6.27687,12.81257 -8.08224,15.56307 -14.86184,22.64224 -8.48204,8.85684 -9.84585,11.02482 -12.92265,20.54265 -3.20999,9.9298 -5.14431,12.46512 -11.24674,14.74114 l -5.32398,1.98568 -0.26386,31.47097 -0.26385,31.47097 5.59878,1.1244 c 3.07934,0.61842 9.49807,2.67795 14.26386,4.57675 8.05061,3.20755 14.04676,4.96767 20.16507,5.91931 z m -67.75,-10.53647 c -4.31457,4.98984 -11.19629,2.60254 -11.23469,-3.89733 -0.0327,-5.53982 8.25624,-8.21079 11.42799,-3.68248 2.02401,2.88968 1.96815,5.08008 -0.1933,7.57981 z m 192.26759,-68.0911 c 0,69.17858 -58.22856,125.25891 -130.05713,125.25891 -71.82857,0 -130.05713,-56.08033 -130.05713,-125.25891 0,-69.178594 58.22856,-125.258919 130.05713,-125.258919 71.82857,0 130.05713,56.080325 130.05713,125.258919 z" />
    <path
       transform="matrix(0.93865234,0.34486489,-0.35269248,0.93573929,0,0)"
       style="color:#000000;fill:#f64646;fill-opacity:1;fill-rule:nonzero;stroke:#f1ffff;stroke-width:6.70011663000000013;stroke-linecap:round;stroke-linejoin:round;stroke-miterlimit:4;stroke-opacity:1;stroke-dashoffset:0;marker:none;visibility:visible;display:inline;overflow:visible;enable-background:accumulate"
       d="m -356.95825,284.14131 1.62921,-130.28691 53.06133,0 -2.58895,122.00443 m 2.98894,108.21761 -0.42863,70.64424 -53.06133,0 0.39941,-52.82134"
       id="rect3176"
       inkscape:connector-curvature="0"
       sodipodi:nodetypes="cccccccc" />
  </g>
</svg>
