<?xml version="1.0" encoding="UTF-8" standalone="no"?>
<!-- Generator: Adobe Illustrator 18.1.1, SVG Export Plug-In . SVG Version: 6.00 Build 0)  -->

<svg
   xmlns:dc="http://purl.org/dc/elements/1.1/"
   xmlns:cc="http://creativecommons.org/ns#"
   xmlns:rdf="http://www.w3.org/1999/02/22-rdf-syntax-ns#"
   xmlns:svg="http://www.w3.org/2000/svg"
   xmlns="http://www.w3.org/2000/svg"
   xmlns:sodipodi="http://sodipodi.sourceforge.net/DTD/sodipodi-0.dtd"
   xmlns:inkscape="http://www.inkscape.org/namespaces/inkscape"
   version="1.1"
   id="Capa_1"
   x="0px"
   y="0px"
   viewBox="0 0 19.397293 15.363025"
   xml:space="preserve"
   inkscape:version="0.48.4 r9939"
   width="100%"
   height="100%"
   sodipodi:docname="insert-row.svg"><metadata
     id="metadata47"><rdf:RDF><cc:Work
         rdf:about=""><dc:format>image/svg+xml</dc:format><dc:type
           rdf:resource="http://purl.org/dc/dcmitype/StillImage" /><dc:title></dc:title></cc:Work></rdf:RDF></metadata><defs
     id="defs45" /><sodipodi:namedview
     pagecolor="#ffffff"
     bordercolor="#666666"
     borderopacity="1"
     objecttolerance="10"
     gridtolerance="10"
     guidetolerance="10"
     inkscape:pageopacity="0"
     inkscape:pageshadow="2"
     inkscape:window-width="2289"
     inkscape:window-height="1431"
     id="namedview43"
     showgrid="false"
     inkscape:zoom="61.374423"
     inkscape:cx="12.744146"
     inkscape:cy="6.1624039"
     inkscape:window-x="0"
     inkscape:window-y="0"
     inkscape:window-maximized="0"
     inkscape:current-layer="Capa_1"
     fit-margin-top="0"
     fit-margin-left="0"
     fit-margin-right="0"
     fit-margin-bottom="0" /><path
     style="fill:#030104"
     d="m 4.0162936,3.4460243 v 7.7320007 h 6.0530004 c 0,-0.035 -0.004,-0.07 -0.004,-0.104 0,-0.434 0.061,-0.854 0.165,-1.2550007 H 5.3762936 v -5.013 H 18.038294 v 2.192 c 0.546,0.396 1.01,0.897 1.359,1.477 v -5.029 H 4.0162936 z"
     id="path7"
     inkscape:connector-curvature="0" /><path
     style="fill:#030104"
     d="m 15.212294,6.9940243 c -2.307,0 -4.183,1.877 -4.183,4.1840007 0,2.308 1.876,4.185 4.183,4.185 2.309,0 4.185,-1.877 4.185,-4.185 0,-2.3070007 -1.876,-4.1840007 -4.185,-4.1840007 z m 0,7.2330007 c -1.679,0 -3.047,-1.367 -3.047,-3.049 0,-1.6800007 1.368,-3.0490007 3.047,-3.0490007 1.684,0 3.05,1.369 3.05,3.0490007 0,1.682 -1.366,3.049 -3.05,3.049 z"
     id="path9"
     inkscape:connector-curvature="0" /><path
     style="fill:#030104"
     d="m 14.703794,9.0890243 0,1.3750007 -1.375,0 0,1.125 1.375,0 0,1.34375 1.09375,0 0,-1.34375 1.375,0 0,-1.125 -1.375,0 0,-1.3750007 -1.09375,0 z"
     id="rect11"
     inkscape:connector-curvature="0" /><g
     id="g13"
     transform="translate(4.0162936,1.7140243)" /><g
     id="g15"
     transform="translate(4.0162936,1.7140243)" /><g
     id="g17"
     transform="translate(4.0162936,1.7140243)" /><g
     id="g19"
     transform="translate(4.0162936,1.7140243)" /><g
     id="g21"
     transform="translate(4.0162936,1.7140243)" /><g
     id="g23"
     transform="translate(4.0162936,1.7140243)" /><g
     id="g25"
     transform="translate(4.0162936,1.7140243)" /><g
     id="g27"
     transform="translate(4.0162936,1.7140243)" /><g
     id="g29"
     transform="translate(4.0162936,1.7140243)" /><g
     id="g31"
     transform="translate(4.0162936,1.7140243)" /><g
     id="g33"
     transform="translate(4.0162936,1.7140243)" /><g
     id="g35"
     transform="translate(4.0162936,1.7140243)" /><g
     id="g37"
     transform="translate(4.0162936,1.7140243)" /><g
     id="g39"
     transform="translate(4.0162936,1.7140243)" /><g
     id="g41"
     transform="translate(4.0162936,1.7140243)" /><path
     inkscape:connector-curvature="0"
     id="path3053"
     d="M 0,-1.9636304e-7 0,7.7319997 l 4.7821122,0 c 0,-0.035 -0.004,-0.07 -0.004,-0.104 0,-0.434 0.061,-0.854 0.1650001,-1.255 l -3.5831122,0 0,-5.0129989 12.6620009,0 0,2.1919989 c 0.546,0.396 1.01,0.3104364 1.359,0.8904364 l 0,-4.44243629636304 z"
     style="fill:#030104"
     sodipodi:nodetypes="cccscccccccc" /></svg>