<?xml version="1.0" ?><svg height="60" id="svg5032" version="1.1" viewBox="0 0 60.000001 60.000001" width="60" xmlns="http://www.w3.org/2000/svg" xmlns:cc="http://creativecommons.org/ns#" xmlns:dc="http://purl.org/dc/elements/1.1/" xmlns:inkscape="http://www.inkscape.org/namespaces/inkscape" xmlns:rdf="http://www.w3.org/1999/02/22-rdf-syntax-ns#" xmlns:sodipodi="http://sodipodi.sourceforge.net/DTD/sodipodi-0.dtd" xmlns:svg="http://www.w3.org/2000/svg"><defs id="defs5034"/><g id="layer1" transform="translate(0,-992.36216)"><circle cx="30" cy="1022.3622" id="path4784-9-5-3-4" r="30" style="opacity:1;fill:#ffad2a;fill-opacity:1;stroke:none;stroke-width:0.03;stroke-miterlimit:4;stroke-dasharray:none;stroke-opacity:1"/><path d="m 45.209984,1035.3675 -4.042,-4.042 0.0727,-0.073 c 0.744,-0.744 0.81467,-1.9267 0.164,-2.7533 l -9.46333,-12.0467 c 0.26733,-2.56 -0.57333,-5.2153 -2.53067,-7.1733 -3.44466,-3.4447 -9.05,-3.4447 -12.494,0 -3.44466,3.444 -3.44466,9.0493 0,12.494 1.958,1.9573 4.61334,2.798 7.17334,2.5306 l 12.04666,9.4634 c 0.82667,0.6506 2.00934,0.58 2.75334,-0.164 l 0.0727,-0.073 4.042,4.042 c 0.60867,0.6087 1.59667,0.6087 2.20534,0 0.60866,-0.6087 0.60933,-1.5967 0,-2.2053 z m -20.11267,-17.908 c -2.034,2.034 -5,3.818 -6.666,2.1513 -2.432,-2.4307 -2.432,-6.3867 0,-8.8173 2.43067,-2.432 6.386,-2.432 8.81733,0 1.66667,1.666 -0.11733,4.6326 -2.15133,6.666 z m 10.37333,8.9033 -1.47,1.47 c -0.40533,0.406 -1.06333,0.406 -1.46866,0 l -3.074,-3.0733 c -0.406,-0.406 -0.406,-1.064 0,-1.4694 l 1.47,-1.47 c 0.40533,-0.406 1.06333,-0.406 1.46933,0 l 3.07333,3.074 c 0.406,0.4054 0.406,1.0634 0,1.4687 z" id="path4684" style="fill:#aa0000"/></g></svg>