<?xml version="1.0" encoding="UTF-8" standalone="no"?>
<!-- Generator: Adobe Illustrator 18.1.1, SVG Export Plug-In . SVG Version: 6.00 Build 0)  -->

<svg
   xmlns:dc="http://purl.org/dc/elements/1.1/"
   xmlns:cc="http://creativecommons.org/ns#"
   xmlns:rdf="http://www.w3.org/1999/02/22-rdf-syntax-ns#"
   xmlns:svg="http://www.w3.org/2000/svg"
   xmlns="http://www.w3.org/2000/svg"
   xmlns:sodipodi="http://sodipodi.sourceforge.net/DTD/sodipodi-0.dtd"
   xmlns:inkscape="http://www.inkscape.org/namespaces/inkscape"
   version="1.1"
   id="Capa_1"
   x="0px"
   y="0px"
   viewBox="0 0 410.09376 466.90626"
   xml:space="preserve"
   inkscape:version="0.48.4 r9939"
   width="100%"
   height="100%"
   sodipodi:docname="cut.svg"><metadata
     id="metadata4065"><rdf:RDF><cc:Work
         rdf:about=""><dc:format>image/svg+xml</dc:format><dc:type
           rdf:resource="http://purl.org/dc/dcmitype/StillImage" /><dc:title></dc:title></cc:Work></rdf:RDF></metadata><defs
     id="defs4063" /><sodipodi:namedview
     pagecolor="#ffffff"
     bordercolor="#666666"
     borderopacity="1"
     objecttolerance="10"
     gridtolerance="10"
     guidetolerance="10"
     inkscape:pageopacity="0"
     inkscape:pageshadow="2"
     inkscape:window-width="1920"
     inkscape:window-height="1025"
     id="namedview4061"
     showgrid="false"
     inkscape:zoom="1.0035443"
     inkscape:cx="292.56486"
     inkscape:cy="157.41791"
     inkscape:window-x="2877"
     inkscape:window-y="-3"
     inkscape:window-maximized="1"
     inkscape:current-layer="Capa_1"
     fit-margin-top="0"
     fit-margin-left="0"
     fit-margin-right="0"
     fit-margin-bottom="0" /><g
     id="g4031"
     transform="translate(-7.7097614,-5.7010906)" /><g
     id="g4033"
     transform="translate(-7.7097614,-5.7010906)" /><g
     id="g4035"
     transform="translate(-7.7097614,-5.7010906)" /><g
     id="g4037"
     transform="translate(-7.7097614,-5.7010906)" /><g
     id="g4039"
     transform="translate(-7.7097614,-5.7010906)" /><g
     id="g4041"
     transform="translate(-7.7097614,-5.7010906)" /><g
     id="g4043"
     transform="translate(-7.7097614,-5.7010906)" /><g
     id="g4045"
     transform="translate(-7.7097614,-5.7010906)" /><g
     id="g4047"
     transform="translate(-7.7097614,-5.7010906)" /><g
     id="g4049"
     transform="translate(-7.7097614,-5.7010906)" /><g
     id="g4051"
     transform="translate(-7.7097614,-5.7010906)" /><g
     id="g4053"
     transform="translate(-7.7097614,-5.7010906)" /><g
     id="g4055"
     transform="translate(-7.7097614,-5.7010906)" /><g
     id="g4057"
     transform="translate(-7.7097614,-5.7010906)" /><g
     id="g4059"
     transform="translate(-7.7097614,-5.7010906)" /><rect
     ry="0"
     y="139.78326"
     x="-196.04225"
     height="49.823402"
     width="51.81636"
     id="rect4577"
     style="fill:none;stroke:none" /><path
     style="font-size:medium;font-style:normal;font-variant:normal;font-weight:normal;font-stretch:normal;text-indent:0;text-align:start;text-decoration:none;line-height:normal;letter-spacing:normal;word-spacing:normal;text-transform:none;direction:ltr;block-progression:tb;writing-mode:lr-tb;text-anchor:start;baseline-shift:baseline;color:#000000;fill:#000000;fill-opacity:1;stroke:none;stroke-width:35;marker:none;visibility:visible;display:inline;overflow:visible;enable-background:accumulate;font-family:Sans;-inkscape-font-specification:Sans"
     d="m 17.5,90.687496 c -4.58136,4.6e-4 -9.1343404,1.88663 -12.3738604,5.126143 C 1.88663,99.053159 4.6e-4,103.60614 0,108.1875 l 0,30.59375 35,0 0,-13.09375 30.09375,0 0,-35.000004 z M 0,181.625 l 0,35.21875 35,0 0,-35.21875 z m 0,78.0625 0,35.21875 35,0 0,-35.21875 z m 0,78.0625 0,35.21875 35,0 0,-35.21875 z m 0,78.0625 0,33.59375 c 4.6e-4,4.58136 1.88663,9.13434 5.1261396,12.37386 3.23952,3.23951 7.7925004,5.12568 12.3738604,5.12614 l 33.59375,0 0,-35 -16.09375,0 0,-16.09375 z m 284.40625,-14 0,30.09375 -18.09375,0 0,35 35.59375,0 c 4.58136,-4.6e-4 9.13434,-1.88663 12.37386,-5.12614 3.23951,-3.23952 5.12568,-7.7925 5.12614,-12.37386 l 0,-47.59375 z m -190.468751,30.09375 0,35 43.343751,0 0,-35 z m 86.187501,0 0,35 43.34375,0 0,-35 z"
     id="rect4581"
     inkscape:connector-curvature="0"
     sodipodi:nodetypes="csccccccccccccccccccccccccscccccccccccsccccccccccccc" /><path
     style="font-size:medium;font-style:normal;font-variant:normal;font-weight:normal;font-stretch:normal;text-indent:0;text-align:start;text-decoration:none;line-height:normal;letter-spacing:normal;word-spacing:normal;text-transform:none;direction:ltr;block-progression:tb;writing-mode:lr-tb;text-anchor:start;baseline-shift:baseline;color:#000000;fill:#000000;fill-opacity:1;stroke:none;stroke-width:35;marker:none;visibility:visible;display:inline;overflow:visible;enable-background:accumulate;font-family:Sans;-inkscape-font-specification:Sans"
     d="M 108.15625,3.1154059e-7 A 17.50175,17.50175 0 0 0 90.65625,17.5 l 0,341.21875 a 17.50175,17.50175 0 0 0 17.5,17.5 l 284.4375,0 a 17.50175,17.50175 0 0 0 17.5,-17.5 l 0,-249.6875 A 17.50175,17.50175 0 0 0 405.125,96.843749 L 316.09375,5.3125004 A 17.50175,17.50175 0 0 0 303.53125,3.1154059e-7 l -195.375,0 z M 125.65625,35 267.75,35 l 0,92.8125 a 17.50175,17.50175 0 0 0 17.5,17.5 l 89.84375,0 0,195.90625 -249.4375,0 0,-306.21875 z m 177.09375,6.8125 66.625,68.5 -66.625,0 0,-68.5 z"
     id="rect4583"
     inkscape:connector-curvature="0" /></svg>