<?xml version="1.0" encoding="UTF-8" standalone="no"?>
<!-- Generator: Adobe Illustrator 18.1.1, SVG Export Plug-In . SVG Version: 6.00 Build 0)  -->

<svg
   xmlns:dc="http://purl.org/dc/elements/1.1/"
   xmlns:cc="http://creativecommons.org/ns#"
   xmlns:rdf="http://www.w3.org/1999/02/22-rdf-syntax-ns#"
   xmlns:svg="http://www.w3.org/2000/svg"
   xmlns="http://www.w3.org/2000/svg"
   xmlns:sodipodi="http://sodipodi.sourceforge.net/DTD/sodipodi-0.dtd"
   xmlns:inkscape="http://www.inkscape.org/namespaces/inkscape"
   version="1.1"
   id="Capa_1"
   x="0px"
   y="0px"
   viewBox="0 0 64 63.999999"
   xml:space="preserve"
   inkscape:version="0.48.5 r10040"
   width="100%"
   height="100%"
   sodipodi:docname="delete-column.svg"><metadata
     id="metadata47"><rdf:RDF><cc:Work
         rdf:about=""><dc:format>image/svg+xml</dc:format><dc:type
           rdf:resource="http://purl.org/dc/dcmitype/StillImage" /><dc:title /></cc:Work></rdf:RDF></metadata><defs
     id="defs45" /><sodipodi:namedview
     pagecolor="#ffffff"
     bordercolor="#666666"
     borderopacity="1"
     objecttolerance="10"
     gridtolerance="10"
     guidetolerance="10"
     inkscape:pageopacity="0"
     inkscape:pageshadow="2"
     inkscape:window-width="2220"
     inkscape:window-height="1505"
     id="namedview43"
     showgrid="false"
     inkscape:zoom="10.849568"
     inkscape:cx="59.445752"
     inkscape:cy="14.866717"
     inkscape:window-x="0"
     inkscape:window-y="0"
     inkscape:window-maximized="0"
     inkscape:current-layer="Capa_1"
     fit-margin-top="0"
     fit-margin-left="0"
     fit-margin-right="0"
     fit-margin-bottom="0" /><path
     style="fill:#030104"
     d="m 7.4469824,0 32.1716326,0 0,25.18558 c -0.145631,0 -0.291258,-0.01664 -0.432727,-0.01664 -1.805806,0 -3.55336,0.253814 -5.221858,0.686539 l 0,-20.19673 -20.858304,0 0,52.68459 9.120567,0 c 1.647694,2.271819 3.732276,4.202452 6.145564,5.654585 l -20.9248746,0 0,-63.997921 z"
     id="path7"
     inkscape:connector-curvature="0" /><path
     style="fill:#030104"
     d="m 39.616535,64.000001 c -9.599064,0 -17.404805,-7.8099 -17.404805,-17.408967 0,-9.603223 7.805741,-17.413125 17.404805,-17.413125 9.607385,0 17.413125,7.809902 17.413125,17.413125 0,9.599067 -7.80574,17.408967 -17.413125,17.408967 z m 0,-30.095375 c -6.986055,0 -12.678088,5.687872 -12.678088,12.686408 0,6.990217 5.692033,12.686412 12.678088,12.686412 7.006858,0 12.69057,-5.696195 12.69057,-12.686412 0,-6.998536 -5.683712,-12.686408 -12.69057,-12.686408 z"
     id="path9"
     inkscape:connector-curvature="0" /><rect
     x="30.984875"
     y="-49.039692"
     style="fill:#030104"
     width="15.99428"
     height="4.5935702"
     id="rect11"
     transform="scale(1,-1)" /><g
     id="g13"
     transform="matrix(0,4.1608426,4.1608426,0,-71.204498,0)" /><g
     id="g15"
     transform="matrix(0,4.1608426,4.1608426,0,-71.204498,0)" /><g
     id="g17"
     transform="matrix(0,4.1608426,4.1608426,0,-71.204498,0)" /><g
     id="g19"
     transform="matrix(0,4.1608426,4.1608426,0,-71.204498,0)" /><g
     id="g21"
     transform="matrix(0,4.1608426,4.1608426,0,-71.204498,0)" /><g
     id="g23"
     transform="matrix(0,4.1608426,4.1608426,0,-71.204498,0)" /><g
     id="g25"
     transform="matrix(0,4.1608426,4.1608426,0,-71.204498,0)" /><g
     id="g27"
     transform="matrix(0,4.1608426,4.1608426,0,-71.204498,0)" /><g
     id="g29"
     transform="matrix(0,4.1608426,4.1608426,0,-71.204498,0)" /><g
     id="g31"
     transform="matrix(0,4.1608426,4.1608426,0,-71.204498,0)" /><g
     id="g33"
     transform="matrix(0,4.1608426,4.1608426,0,-71.204498,0)" /><g
     id="g35"
     transform="matrix(0,4.1608426,4.1608426,0,-71.204498,0)" /><g
     id="g37"
     transform="matrix(0,4.1608426,4.1608426,0,-71.204498,0)" /><g
     id="g39"
     transform="matrix(0,4.1608426,4.1608426,0,-71.204498,0)" /><g
     id="g41"
     transform="matrix(0,4.1608426,4.1608426,0,-71.204498,0)" /></svg>