<?xml version="1.0" encoding="UTF-8" standalone="no"?>
<!-- Generator: Adobe Illustrator 18.1.1, SVG Export Plug-In . SVG Version: 6.00 Build 0)  -->

<svg
   xmlns:dc="http://purl.org/dc/elements/1.1/"
   xmlns:cc="http://creativecommons.org/ns#"
   xmlns:rdf="http://www.w3.org/1999/02/22-rdf-syntax-ns#"
   xmlns:svg="http://www.w3.org/2000/svg"
   xmlns="http://www.w3.org/2000/svg"
   xmlns:sodipodi="http://sodipodi.sourceforge.net/DTD/sodipodi-0.dtd"
   xmlns:inkscape="http://www.inkscape.org/namespaces/inkscape"
   version="1.1"
   id="Capa_1"
   x="0px"
   y="0px"
   viewBox="0 0 63.999999 64"
   xml:space="preserve"
   inkscape:version="0.48.5 r10040"
   width="100%"
   height="100%"
   sodipodi:docname="delete-row.svg"><metadata
     id="metadata47"><rdf:RDF><cc:Work
         rdf:about=""><dc:format>image/svg+xml</dc:format><dc:type
           rdf:resource="http://purl.org/dc/dcmitype/StillImage" /></cc:Work></rdf:RDF></metadata><defs
     id="defs45" /><sodipodi:namedview
     pagecolor="#ffffff"
     bordercolor="#666666"
     borderopacity="1"
     objecttolerance="10"
     gridtolerance="10"
     guidetolerance="10"
     inkscape:pageopacity="0"
     inkscape:pageshadow="2"
     inkscape:window-width="1996"
     inkscape:window-height="1482"
     id="namedview43"
     showgrid="false"
     fit-margin-top="0"
     fit-margin-left="0"
     fit-margin-right="0"
     fit-margin-bottom="0"
     inkscape:zoom="15.343606"
     inkscape:cx="7.6904997"
     inkscape:cy="26.814092"
     inkscape:window-x="0"
     inkscape:window-y="0"
     inkscape:window-maximized="0"
     inkscape:current-layer="Capa_1" /><g
     id="g3"
     transform="matrix(4.1609779,0,0,4.1609779,-2.7464407e-7,-0.1414485)"><g
       id="g5"><path
         style="fill:#030104"
         d="M 0,1.732 V 9.464 H 6.053 C 6.053,9.429 6.049,9.394 6.049,9.36 6.049,8.926 6.11,8.506 6.214,8.105 H 1.36 V 3.092 h 12.662 v 2.192 c 0.546,0.396 1.01,0.897 1.359,1.477 V 1.732 H 0 z"
         id="path7"
         inkscape:connector-curvature="0" /><path
         style="fill:#030104"
         d="m 11.196,5.28 c -2.307,0 -4.183,1.877 -4.183,4.184 0,2.308 1.876,4.185 4.183,4.185 2.309,0 4.185,-1.877 4.185,-4.185 0,-2.307 -1.876,-4.184 -4.185,-4.184 z m 0,7.233 c -1.679,0 -3.047,-1.367 -3.047,-3.049 0,-1.68 1.368,-3.049 3.047,-3.049 1.684,0 3.05,1.369 3.05,3.049 0,1.682 -1.366,3.049 -3.05,3.049 z"
         id="path9"
         inkscape:connector-curvature="0" /><rect
         x="9.3120003"
         y="8.7589998"
         style="fill:#030104"
         width="3.8440001"
         height="1.104"
         id="rect11" /></g></g><g
     id="g13"
     transform="matrix(4.1609779,0,0,4.1609779,-2.7464407e-7,-0.1414485)" /><g
     id="g15"
     transform="matrix(4.1609779,0,0,4.1609779,-2.7464407e-7,-0.1414485)" /><g
     id="g17"
     transform="matrix(4.1609779,0,0,4.1609779,-2.7464407e-7,-0.1414485)" /><g
     id="g19"
     transform="matrix(4.1609779,0,0,4.1609779,-2.7464407e-7,-0.1414485)" /><g
     id="g21"
     transform="matrix(4.1609779,0,0,4.1609779,-2.7464407e-7,-0.1414485)" /><g
     id="g23"
     transform="matrix(4.1609779,0,0,4.1609779,-2.7464407e-7,-0.1414485)" /><g
     id="g25"
     transform="matrix(4.1609779,0,0,4.1609779,-2.7464407e-7,-0.1414485)" /><g
     id="g27"
     transform="matrix(4.1609779,0,0,4.1609779,-2.7464407e-7,-0.1414485)" /><g
     id="g29"
     transform="matrix(4.1609779,0,0,4.1609779,-2.7464407e-7,-0.1414485)" /><g
     id="g31"
     transform="matrix(4.1609779,0,0,4.1609779,-2.7464407e-7,-0.1414485)" /><g
     id="g33"
     transform="matrix(4.1609779,0,0,4.1609779,-2.7464407e-7,-0.1414485)" /><g
     id="g35"
     transform="matrix(4.1609779,0,0,4.1609779,-2.7464407e-7,-0.1414485)" /><g
     id="g37"
     transform="matrix(4.1609779,0,0,4.1609779,-2.7464407e-7,-0.1414485)" /><g
     id="g39"
     transform="matrix(4.1609779,0,0,4.1609779,-2.7464407e-7,-0.1414485)" /><g
     id="g41"
     transform="matrix(4.1609779,0,0,4.1609779,-2.7464407e-7,-0.1414485)" /></svg>