<?xml version="1.0" encoding="UTF-8" standalone="no"?>
<!-- Generator: Adobe Illustrator 18.1.1, SVG Export Plug-In . SVG Version: 6.00 Build 0)  -->

<svg
   version="1.1"
   id="Capa_1"
   x="0px"
   y="0px"
   viewBox="0 0 57.231 57.231"
   xml:space="preserve"
   inkscape:version="1.1.1 (3bf5ae0d25, 2021-09-20)"
   width="100%"
   height="100%"
   sodipodi:docname="find.svg"
   style="enable-background:new 0 0 57.231 57.231;"
   xmlns:inkscape="http://www.inkscape.org/namespaces/inkscape"
   xmlns:sodipodi="http://sodipodi.sourceforge.net/DTD/sodipodi-0.dtd"
   xmlns="http://www.w3.org/2000/svg"
   xmlns:svg="http://www.w3.org/2000/svg"
   xmlns:rdf="http://www.w3.org/1999/02/22-rdf-syntax-ns#"
   xmlns:cc="http://creativecommons.org/ns#"
   xmlns:dc="http://purl.org/dc/elements/1.1/"><metadata
     id="metadata45"><rdf:RDF><cc:Work
         rdf:about=""><dc:format>image/svg+xml</dc:format><dc:type
           rdf:resource="http://purl.org/dc/dcmitype/StillImage" /></cc:Work></rdf:RDF></metadata><defs
     id="defs43" /><sodipodi:namedview
     pagecolor="#ffffff"
     bordercolor="#666666"
     borderopacity="1"
     objecttolerance="10"
     gridtolerance="10"
     guidetolerance="10"
     inkscape:pageopacity="0"
     inkscape:pageshadow="2"
     inkscape:window-width="1458"
     inkscape:window-height="991"
     id="namedview41"
     showgrid="false"
     inkscape:zoom="4.1236393"
     inkscape:cx="29.706769"
     inkscape:cy="28.6155"
     inkscape:window-x="26"
     inkscape:window-y="23"
     inkscape:window-maximized="0"
     inkscape:current-layer="Capa_1"
     inkscape:pagecheckerboard="0"
     height="60px" /><g
     id="g3"
     transform="matrix(-0.74688714,0,0,0.74688714,49.98783,7.2428246)"><g
       id="g5"><path
         style="fill:#010002"
         d="m 23.945,9.373 c -1.652,0 -2.992,1.341 -2.992,2.992 0,1.654 1.34,2.992 2.992,2.992 3.656,0 6.921,2.042 8.524,5.333 0.519,1.062 1.583,1.68 2.691,1.68 0.441,0 0.888,-0.097 1.309,-0.303 1.486,-0.723 2.104,-2.514 1.379,-4.001 C 35.235,12.704 29.906,9.373 23.945,9.373 Z"
         id="path7"
         inkscape:connector-curvature="0" /><path
         style="fill:#010002"
         d="M 56.135,50.469 46.164,40.497 C 49.116,36.345 50.869,31.284 50.869,25.812 50.869,11.787 39.459,0.377 25.434,0.377 11.409,0.377 0,11.787 0,25.812 c 0,14.024 11.409,25.434 25.434,25.434 5.859,0 11.245,-2.01 15.549,-5.351 l 9.862,9.862 c 0.73,0.73 1.689,1.096 2.645,1.096 0.958,0 1.915,-0.365 2.645,-1.096 1.461,-1.459 1.461,-3.827 0,-5.288 z M 5.986,25.813 c 0,-10.725 8.726,-19.45 19.45,-19.45 10.724,0 19.45,8.725 19.45,19.45 0,4.462 -1.525,8.566 -4.063,11.852 -0.839,1.085 -1.781,2.086 -2.827,2.973 -3.392,2.878 -7.773,4.625 -12.56,4.625 C 14.711,45.262 5.986,36.537 5.986,25.813 Z"
         id="path9"
         inkscape:connector-curvature="0" /></g></g><g
     id="g11" /><g
     id="g13" /><g
     id="g15" /><g
     id="g17" /><g
     id="g19" /><g
     id="g21" /><g
     id="g23" /><g
     id="g25" /><g
     id="g27" /><g
     id="g29" /><g
     id="g31" /><g
     id="g33" /><g
     id="g35" /><g
     id="g37" /><g
     id="g39" /></svg>
