<?xml version="1.0" encoding="UTF-8" standalone="no"?>
<!-- Generator: Adobe Illustrator 18.1.1, SVG Export Plug-In . SVG Version: 6.00 Build 0)  -->

<svg
   xmlns:dc="http://purl.org/dc/elements/1.1/"
   xmlns:cc="http://creativecommons.org/ns#"
   xmlns:rdf="http://www.w3.org/1999/02/22-rdf-syntax-ns#"
   xmlns:svg="http://www.w3.org/2000/svg"
   xmlns="http://www.w3.org/2000/svg"
   xmlns:sodipodi="http://sodipodi.sourceforge.net/DTD/sodipodi-0.dtd"
   xmlns:inkscape="http://www.inkscape.org/namespaces/inkscape"
   version="1.1"
   id="Capa_1"
   x="0px"
   y="0px"
   viewBox="0 0 15.381 15.381"
   style="enable-background:new 0 0 15.381 15.381;"
   xml:space="preserve"
   inkscape:version="0.48.4 r9939"
   width="100%"
   height="100%"
   sodipodi:docname="edit-table.svg"><metadata
     id="metadata47"><rdf:RDF><cc:Work
         rdf:about=""><dc:format>image/svg+xml</dc:format><dc:type
           rdf:resource="http://purl.org/dc/dcmitype/StillImage" /><dc:title></dc:title></cc:Work></rdf:RDF></metadata><defs
     id="defs45" /><sodipodi:namedview
     pagecolor="#ffffff"
     bordercolor="#666666"
     borderopacity="1"
     objecttolerance="10"
     gridtolerance="10"
     guidetolerance="10"
     inkscape:pageopacity="0"
     inkscape:pageshadow="2"
     inkscape:window-width="2289"
     inkscape:window-height="1431"
     id="namedview43"
     showgrid="false"
     inkscape:zoom="86.796541"
     inkscape:cx="7.8756362"
     inkscape:cy="6.6316497"
     inkscape:window-x="0"
     inkscape:window-y="0"
     inkscape:window-maximized="0"
     inkscape:current-layer="Capa_1" /><path
     style="fill:#030104"
     d="M 0,1.732 V 9.464 H 6.053 C 6.053,9.429 6.049,9.394 6.049,9.36 6.049,8.926 6.11,8.506 6.214,8.105 H 1.36 V 3.092 h 12.662 v 2.192 c 0.546,0.396 1.01,0.897 1.359,1.477 V 1.732 H 0 z"
     id="path7"
     inkscape:connector-curvature="0" /><path
     style="fill:#030104"
     d="m 11.196,5.28 c -2.307,0 -4.183,1.877 -4.183,4.184 0,2.308 1.876,4.185 4.183,4.185 2.309,0 4.185,-1.877 4.185,-4.185 0,-2.307 -1.876,-4.184 -4.185,-4.184 z m 0,7.233 c -1.679,0 -3.047,-1.367 -3.047,-3.049 0,-1.68 1.368,-3.049 3.047,-3.049 1.684,0 3.05,1.369 3.05,3.049 0,1.682 -1.366,3.049 -3.05,3.049 z"
     id="path9"
     inkscape:connector-curvature="0" /><path
     style="fill:#030104"
     d="M 10.6875 7.375 L 10.6875 8.75 L 9.3125 8.75 L 9.3125 9.875 L 10.6875 9.875 L 10.6875 11.21875 L 11.78125 11.21875 L 11.78125 9.875 L 13.15625 9.875 L 13.15625 8.75 L 11.78125 8.75 L 11.78125 7.375 L 10.6875 7.375 z "
     id="rect11" /><g
     id="g13" /><g
     id="g15" /><g
     id="g17" /><g
     id="g19" /><g
     id="g21" /><g
     id="g23" /><g
     id="g25" /><g
     id="g27" /><g
     id="g29" /><g
     id="g31" /><g
     id="g33" /><g
     id="g35" /><g
     id="g37" /><g
     id="g39" /><g
     id="g41" /></svg>