<?xml version="1.0" encoding="UTF-8" standalone="no"?>
<!-- Generator: Adobe Illustrator 18.1.1, SVG Export Plug-In . SVG Version: 6.00 Build 0)  -->

<svg
   xmlns:dc="http://purl.org/dc/elements/1.1/"
   xmlns:cc="http://creativecommons.org/ns#"
   xmlns:rdf="http://www.w3.org/1999/02/22-rdf-syntax-ns#"
   xmlns:svg="http://www.w3.org/2000/svg"
   xmlns="http://www.w3.org/2000/svg"
   xmlns:sodipodi="http://sodipodi.sourceforge.net/DTD/sodipodi-0.dtd"
   xmlns:inkscape="http://www.inkscape.org/namespaces/inkscape"
   version="1.1"
   id="Capa_1"
   x="0px"
   y="0px"
   viewBox="0 0 285.137 285.137"
   style="enable-background:new 0 0 285.137 285.137;"
   xml:space="preserve"
   inkscape:version="0.48.5 r10040"
   width="100%"
   height="100%"
   sodipodi:docname="printer.svg"><metadata
     id="metadata3111"><rdf:RDF><cc:Work
         rdf:about=""><dc:format>image/svg+xml</dc:format><dc:type
           rdf:resource="http://purl.org/dc/dcmitype/StillImage" /><dc:title></dc:title></cc:Work></rdf:RDF></metadata><defs
     id="defs3109" /><sodipodi:namedview
     pagecolor="#ffffff"
     bordercolor="#666666"
     borderopacity="1"
     objecttolerance="10"
     gridtolerance="10"
     guidetolerance="10"
     inkscape:pageopacity="0"
     inkscape:pageshadow="2"
     inkscape:window-width="2880"
     inkscape:window-height="1563"
     id="namedview3107"
     showgrid="false"
     inkscape:zoom="4.7240449"
     inkscape:cx="142.5685"
     inkscape:cy="134.10118"
     inkscape:window-x="-3"
     inkscape:window-y="-3"
     inkscape:window-maximized="1"
     inkscape:current-layer="Capa_1" /><path
     sodipodi:type="arc"
     style="color:#000000;fill:#ffffff;fill-opacity:1;fill-rule:nonzero;stroke:#000000;stroke-width:0.12500000000000000;stroke-linecap:butt;stroke-linejoin:bevel;stroke-miterlimit:4;stroke-opacity:1;stroke-dasharray:none;stroke-dashoffset:0;marker:none;visibility:visible;display:inline;overflow:visible;enable-background:accumulate"
     id="path3135"
     sodipodi:cx="255.18385"
     sodipodi:cy="127.85653"
     sodipodi:rx="15.347017"
     sodipodi:ry="14.81781"
     d="m 270.53087,127.85653 a 15.347017,14.81781 0 1 1 -30.69403,0 15.347017,14.81781 0 1 1 30.69403,0 z" /><path
     style="color:#000000;fill:#ffffff;fill-opacity:1;fill-rule:nonzero;stroke:#000000;stroke-width:0.12500000000000000;stroke-linecap:butt;stroke-linejoin:bevel;stroke-miterlimit:4;stroke-opacity:1;stroke-dashoffset:0;marker:none;visibility:visible;display:inline;overflow:visible;enable-background:accumulate"
     d="m 88.271812,16.722958 74.300718,0.635049 34.07155,29.362168 0.64446,84.311635 -109.016728,0 z"
     id="rect3132"
     inkscape:connector-curvature="0"
     sodipodi:nodetypes="cccccc" /><g
     id="g3069"><path
       style="fill:#010002;"
       d="M73.634,240.67l-2.116,22.208c-1.142,11.961,7.675,21.658,19.689,21.658h102.717   c12.015,0,21.06-9.714,20.206-21.702l-1.583-22.17H73.634V240.67z"
       id="path3071" /><path
       style="fill:#010002;"
       d="M285.137,242.112V119.553c0-12.015-9.741-21.756-21.756-21.756h-37.774v57.97H59.531v-57.97H21.756   C9.741,97.797,0,107.538,0,119.553v122.558c0,12.015,9.741,21.756,21.756,21.756h37.774v-37.6h166.071v37.6h37.774   C275.396,263.868,285.137,254.127,285.137,242.112z M255.636,138.53c-5.624,0-10.187-4.558-10.187-10.182   c0-5.624,4.563-10.182,10.187-10.182c5.619,0,10.182,4.558,10.182,10.182C265.818,133.972,261.255,138.53,255.636,138.53z"
       id="path3073" /><path
       style="fill:#010002;"
       d="M210.639,42.52v-4.955l-38.34-36.964h-5.483c-0.011,0-0.011,0-0.011,0c-0.011,0-0.011,0-0.011,0   H95.613c-11.389,0-20.652,9.252-20.652,20.619v120.454h135.677V42.917C210.639,42.786,210.644,42.656,210.639,42.52z    M190.345,119.907c0,0.185-0.141,0.315-0.343,0.315h-94.39c-0.207,0-0.354-0.131-0.354-0.315V21.215   c0-0.185,0.152-0.321,0.354-0.321h59.748v12.407c0,15.523,13.315,21.158,22.278,21.158h12.706   C190.345,54.459,190.345,119.907,190.345,119.907z"
       id="path3075" /></g><g
     id="g3077" /><g
     id="g3079" /><g
     id="g3081" /><g
     id="g3083" /><g
     id="g3085" /><g
     id="g3087" /><g
     id="g3089" /><g
     id="g3091" /><g
     id="g3093" /><g
     id="g3095" /><g
     id="g3097" /><g
     id="g3099" /><g
     id="g3101" /><g
     id="g3103" /><g
     id="g3105" /></svg>