<?xml version="1.0" encoding="UTF-8" standalone="no"?>
<svg
   xmlns:dc="http://purl.org/dc/elements/1.1/"
   xmlns:cc="http://creativecommons.org/ns#"
   xmlns:rdf="http://www.w3.org/1999/02/22-rdf-syntax-ns#"
   xmlns:svg="http://www.w3.org/2000/svg"
   xmlns="http://www.w3.org/2000/svg"
   xmlns:sodipodi="http://sodipodi.sourceforge.net/DTD/sodipodi-0.dtd"
   xmlns:inkscape="http://www.inkscape.org/namespaces/inkscape"
   width="64"
   height="64"
   viewBox="0 0 64 64"
   id="svg2"
   version="1.1"
   inkscape:version="0.48.5 r10040"
   sodipodi:docname="reload.svg">
  <metadata
     id="metadata10">
    <rdf:RDF>
      <cc:Work
         rdf:about="">
        <dc:format>image/svg+xml</dc:format>
        <dc:type
           rdf:resource="http://purl.org/dc/dcmitype/StillImage" />
      </cc:Work>
    </rdf:RDF>
  </metadata>
  <defs
     id="defs8" />
  <sodipodi:namedview
     pagecolor="#ffffff"
     bordercolor="#666666"
     borderopacity="1"
     objecttolerance="10"
     gridtolerance="10"
     guidetolerance="10"
     inkscape:pageopacity="0"
     inkscape:pageshadow="2"
     inkscape:window-width="2189"
     inkscape:window-height="1328"
     id="namedview6"
     showgrid="false"
     fit-margin-top="0"
     fit-margin-left="0"
     fit-margin-right="0"
     fit-margin-bottom="0"
     inkscape:zoom="14.75"
     inkscape:cx="7.2174273"
     inkscape:cy="29.93574"
     inkscape:window-x="685"
     inkscape:window-y="28"
     inkscape:window-maximized="0"
     inkscape:current-layer="svg2" />
  <path
     d="m 32.176541,8.625915 c -12.802013,0 -23.2763867,10.493769 -23.2763867,23.319487 0,12.825717 10.4743737,23.319486 23.2763867,23.319486 6.401005,0 12.336485,-2.506845 16.526231,-6.76265 L 44.513026,44.30473 c -3.142313,3.14813 -7.506635,5.130287 -12.394678,5.130287 -9.659699,0 -17.457288,-7.812028 -17.457288,-17.489615 0,-9.677587 7.797589,-17.489615 17.457288,-17.489615 4.829851,0 9.0196,2.098754 12.161913,5.305183 l -6.342815,6.35456 H 55.394734 V 8.625915 l -6.924723,6.937547 C 44.280261,11.365955 38.519356,8.625915 32.118348,8.625915 z"
     id="path4"
     inkscape:connector-curvature="0" />
</svg>
