<?xml version="1.0" encoding="UTF-8" standalone="no"?>
<svg
   xmlns:dc="http://purl.org/dc/elements/1.1/"
   xmlns:cc="http://creativecommons.org/ns#"
   xmlns:rdf="http://www.w3.org/1999/02/22-rdf-syntax-ns#"
   xmlns:svg="http://www.w3.org/2000/svg"
   xmlns="http://www.w3.org/2000/svg"
   xmlns:sodipodi="http://sodipodi.sourceforge.net/DTD/sodipodi-0.dtd"
   xmlns:inkscape="http://www.inkscape.org/namespaces/inkscape"
   width="22"
   height="22"
   viewBox="0 0 22 22"
   id="svg2"
   version="1.1"
   inkscape:version="0.48.4 r9939"
   sodipodi:docname="reload.svg">
  <metadata
     id="metadata10">
    <rdf:RDF>
      <cc:Work
         rdf:about="">
        <dc:format>image/svg+xml</dc:format>
        <dc:type
           rdf:resource="http://purl.org/dc/dcmitype/StillImage" />
      </cc:Work>
    </rdf:RDF>
  </metadata>
  <defs
     id="defs8" />
  <sodipodi:namedview
     pagecolor="#ffffff"
     bordercolor="#666666"
     borderopacity="1"
     objecttolerance="10"
     gridtolerance="10"
     guidetolerance="10"
     inkscape:pageopacity="0"
     inkscape:pageshadow="2"
     inkscape:window-width="1171"
     inkscape:window-height="911"
     id="namedview6"
     showgrid="false"
     fit-margin-top="0"
     fit-margin-left="0"
     fit-margin-right="0"
     fit-margin-bottom="0"
     inkscape:zoom="14.75"
     inkscape:cx="6.9674273"
     inkscape:cy="10.765189"
     inkscape:window-x="3133"
     inkscape:window-y="28"
     inkscape:window-maximized="0"
     inkscape:current-layer="svg2" />
  <path
     d="M 11.010034,2.9830508 C 6.5951933,2.9830508 2.9830508,6.590678 2.9830508,11 c 0,4.409322 3.6121425,8.016949 8.0269832,8.016949 2.20742,0 4.254301,-0.861822 5.699157,-2.324915 l -1.444856,-1.443051 c -1.083643,1.082288 -2.588702,1.763729 -4.274369,1.763729 -3.3311977,0 -6.0202368,-2.685678 -6.0202368,-6.012712 0,-3.3270339 2.6890391,-6.0127119 6.0202368,-6.0127119 1.665599,0 3.110456,0.7215255 4.194099,1.823856 l -2.187353,2.1846186 h 6.020237 V 2.9830508 L 16.628922,5.3680932 C 15.184065,3.9250424 13.197387,2.9830508 10.989966,2.9830508 z"
     id="path4"
     inkscape:connector-curvature="0" />
</svg>
