<?xml version="1.0" encoding="UTF-8" standalone="no"?>
<svg
   xmlns:dc="http://purl.org/dc/elements/1.1/"
   xmlns:cc="http://creativecommons.org/ns#"
   xmlns:rdf="http://www.w3.org/1999/02/22-rdf-syntax-ns#"
   xmlns:svg="http://www.w3.org/2000/svg"
   xmlns="http://www.w3.org/2000/svg"
   xmlns:sodipodi="http://sodipodi.sourceforge.net/DTD/sodipodi-0.dtd"
   xmlns:inkscape="http://www.inkscape.org/namespaces/inkscape"
   width="22"
   height="22"
   viewBox="0 0 22 22"
   id="svg2"
   version="1.1"
   inkscape:version="0.48.4 r9939"
   sodipodi:docname="reload.svg">
  <metadata
     id="metadata10">
    <rdf:RDF>
      <cc:Work
         rdf:about="">
        <dc:format>image/svg+xml</dc:format>
        <dc:type
           rdf:resource="http://purl.org/dc/dcmitype/StillImage" />
      </cc:Work>
    </rdf:RDF>
  </metadata>
  <defs
     id="defs8" />
  <sodipodi:namedview
     pagecolor="#ffffff"
     bordercolor="#666666"
     borderopacity="1"
     objecttolerance="10"
     gridtolerance="10"
     guidetolerance="10"
     inkscape:pageopacity="0"
     inkscape:pageshadow="2"
     inkscape:window-width="1171"
     inkscape:window-height="911"
     id="namedview6"
     showgrid="false"
     fit-margin-top="0"
     fit-margin-left="0"
     fit-margin-right="0"
     fit-margin-bottom="0"
     inkscape:zoom="29.5"
     inkscape:cx="4"
     inkscape:cy="18.915254"
     inkscape:window-x="1381"
     inkscape:window-y="21"
     inkscape:window-maximized="0"
     inkscape:current-layer="svg2" />
  <path
     d="M 11.013767,0 C 4.9561954,0 0,4.95 0,11 c 0,6.05 4.9561954,11 11.013767,11 3.028786,0 5.837297,-1.1825 7.819774,-3.19 l -1.982477,-1.98 c -1.486859,1.485 -3.55194,2.42 -5.864831,2.42 -4.5707137,0 -8.2603255,-3.685 -8.2603255,-8.25 0,-4.565 3.6896118,-8.25 8.2603255,-8.25 2.285356,0 4.267834,0.99 5.754693,2.5025 L 13.739674,8.25 H 22 V 0 L 18.723404,3.2725 C 16.740926,1.2925 14.015019,0 10.986233,0 z"
     id="path4"
     inkscape:connector-curvature="0" />
</svg>
