<?xml version="1.0" encoding="UTF-8" standalone="no"?>
<!-- Generator: Adobe Illustrator 18.1.1, SVG Export Plug-In . SVG Version: 6.00 Build 0)  -->

<svg
   xmlns:dc="http://purl.org/dc/elements/1.1/"
   xmlns:cc="http://creativecommons.org/ns#"
   xmlns:rdf="http://www.w3.org/1999/02/22-rdf-syntax-ns#"
   xmlns:svg="http://www.w3.org/2000/svg"
   xmlns="http://www.w3.org/2000/svg"
   xmlns:sodipodi="http://sodipodi.sourceforge.net/DTD/sodipodi-0.dtd"
   xmlns:inkscape="http://www.inkscape.org/namespaces/inkscape"
   version="1.1"
   id="Capa_1"
   x="0px"
   y="0px"
   viewBox="0 0 368.10766 439.02307"
   xml:space="preserve"
   inkscape:version="0.48.4 r9939"
   width="100%"
   height="100%"
   sodipodi:docname="zoom_fitheight.svg"><metadata
     id="metadata43"><rdf:RDF><cc:Work
         rdf:about=""><dc:format>image/svg+xml</dc:format><dc:type
           rdf:resource="http://purl.org/dc/dcmitype/StillImage" /><dc:title></dc:title></cc:Work></rdf:RDF></metadata><defs
     id="defs41" /><sodipodi:namedview
     pagecolor="#ffffff"
     bordercolor="#666666"
     borderopacity="1"
     objecttolerance="10"
     gridtolerance="10"
     guidetolerance="10"
     inkscape:pageopacity="0"
     inkscape:pageshadow="2"
     inkscape:window-width="1920"
     inkscape:window-height="1025"
     id="namedview39"
     showgrid="false"
     fit-margin-top="0"
     fit-margin-left="0"
     fit-margin-right="0"
     fit-margin-bottom="0"
     inkscape:zoom="0.50177215"
     inkscape:cx="356.4434"
     inkscape:cy="241.83351"
     inkscape:window-x="2877"
     inkscape:window-y="-3"
     inkscape:window-maximized="1"
     inkscape:current-layer="Capa_1" /><g
     id="g9"
     transform="translate(455.09375,-37.976942)" /><g
     id="g11"
     transform="translate(455.09375,-37.976942)" /><g
     id="g13"
     transform="translate(455.09375,-37.976942)" /><g
     id="g15"
     transform="translate(455.09375,-37.976942)" /><g
     id="g17"
     transform="translate(455.09375,-37.976942)" /><g
     id="g19"
     transform="translate(455.09375,-37.976942)" /><g
     id="g21"
     transform="translate(455.09375,-37.976942)" /><g
     id="g23"
     transform="translate(455.09375,-37.976942)" /><g
     id="g25"
     transform="translate(455.09375,-37.976942)" /><g
     id="g27"
     transform="translate(455.09375,-37.976942)" /><g
     id="g29"
     transform="translate(455.09375,-37.976942)" /><g
     id="g31"
     transform="translate(455.09375,-37.976942)" /><g
     id="g33"
     transform="translate(455.09375,-37.976942)" /><g
     id="g35"
     transform="translate(455.09375,-37.976942)" /><g
     id="g37"
     transform="translate(455.09375,-37.976942)" /><path
     style="font-size:medium;font-style:normal;font-variant:normal;font-weight:normal;font-stretch:normal;text-indent:0;text-align:start;text-decoration:none;line-height:normal;letter-spacing:normal;word-spacing:normal;text-transform:none;direction:ltr;block-progression:tb;writing-mode:lr-tb;text-anchor:start;baseline-shift:baseline;color:#000000;fill:#000000;fill-opacity:1;stroke:none;stroke-width:28.45199966;marker:none;visibility:visible;display:inline;overflow:visible;enable-background:accumulate;font-family:Sans;-inkscape-font-specification:Sans"
     d="M 19.23946,0 C 8.8726,0 0,8.872532 0,19.239463 L 0,419.7836 c 0,10.36686 8.8726,19.23946 19.23946,19.23946 l 329.62873,0 c 10.36686,0 19.23947,-8.8726 19.23947,-19.23946 l 0,-400.544137 C 368.10766,8.872532 359.23505,0 348.86819,0 L 19.23946,0 z m 14.53154,33.771004 300.56565,0 0,371.518126 -300.56565,0 0,-371.518126 z"
     id="rect3031"
     inkscape:connector-curvature="0" /><g
     id="g3846"
     style="stroke-width:22;stroke-miterlimit:4;stroke-dasharray:none"
     transform="matrix(1.1862482,0,0,1.1862482,542.21828,-126.81735)"><path
       style="font-size:medium;font-style:normal;font-variant:normal;font-weight:normal;font-stretch:normal;text-indent:0;text-align:start;text-decoration:none;line-height:normal;letter-spacing:normal;word-spacing:normal;text-transform:none;direction:ltr;block-progression:tb;writing-mode:lr-tb;text-anchor:start;baseline-shift:baseline;color:#000000;fill:#000000;fill-opacity:1;fill-rule:nonzero;stroke:none;stroke-width:22;marker:none;visibility:visible;display:inline;overflow:visible;enable-background:accumulate;font-family:Sans;-inkscape-font-specification:Sans"
       d="m -271.5625,281.5625 a 11.0011,11.0011 0 1 0 0,22 l 62.40625,0 a 11.0011,11.0011 0 1 0 0,-22 l -62.40625,0 z"
       id="path3820"
       inkscape:connector-curvature="0" /><path
       style="font-size:medium;font-style:normal;font-variant:normal;font-weight:normal;font-stretch:normal;text-indent:0;text-align:start;text-decoration:none;line-height:normal;letter-spacing:normal;word-spacing:normal;text-transform:none;direction:ltr;block-progression:tb;writing-mode:lr-tb;text-anchor:start;baseline-shift:baseline;color:#000000;fill:#000000;fill-opacity:1;stroke:none;stroke-width:22;marker:none;visibility:visible;display:inline;overflow:visible;enable-background:accumulate;font-family:Sans;-inkscape-font-specification:Sans"
       d="m -229.375,238.125 a 11.0011,11.0011 0 0 0 -7.6875,18.90625 l 35.5625,35.53125 -35.5625,35.53125 a 11.004349,11.004349 0 1 0 15.5625,15.5625 l 43.3125,-43.3125 a 11.0011,11.0011 0 0 0 0,-15.5625 L -221.5,241.46875 a 11.0011,11.0011 0 0 0 -7.875,-3.34375 z"
       id="path3822"
       inkscape:connector-curvature="0" /></g><g
     id="g3842"
     style="stroke-width:22;stroke-miterlimit:4;stroke-dasharray:none"
     transform="matrix(1.1862482,0,0,1.1862482,535.12592,-126.81735)"><path
       style="font-size:medium;font-style:normal;font-variant:normal;font-weight:normal;font-stretch:normal;text-indent:0;text-align:start;text-decoration:none;line-height:normal;letter-spacing:normal;word-spacing:normal;text-transform:none;direction:ltr;block-progression:tb;writing-mode:lr-tb;text-anchor:start;baseline-shift:baseline;color:#000000;fill:#000000;fill-opacity:1;fill-rule:nonzero;stroke:none;stroke-width:22;marker:none;visibility:visible;display:inline;overflow:visible;enable-background:accumulate;font-family:Sans;-inkscape-font-specification:Sans"
       d="m -387.40625,277.5625 a 11.0011,11.0011 0 1 0 0,22 l 62.40625,0 a 11.0011,11.0011 0 1 0 0,-22 l -62.40625,0 z"
       id="path3824"
       inkscape:connector-curvature="0" /><path
       style="font-size:medium;font-style:normal;font-variant:normal;font-weight:normal;font-stretch:normal;text-indent:0;text-align:start;text-decoration:none;line-height:normal;letter-spacing:normal;word-spacing:normal;text-transform:none;direction:ltr;block-progression:tb;writing-mode:lr-tb;text-anchor:start;baseline-shift:baseline;color:#000000;fill:#000000;fill-opacity:1;stroke:none;stroke-width:22;marker:none;visibility:visible;display:inline;overflow:visible;enable-background:accumulate;font-family:Sans;-inkscape-font-specification:Sans"
       d="m -367.5,234.15625 a 11.0011,11.0011 0 0 0 -7.5625,3.3125 l -43.34375,43.34375 a 11.0011,11.0011 0 0 0 0,15.53125 l 43.34375,43.34375 a 11.0011,11.0011 0 1 0 15.53125,-15.5625 l -35.53125,-35.5625 35.53125,-35.53125 a 11.0011,11.0011 0 0 0 -7.96875,-18.875 z"
       id="path3826"
       inkscape:connector-curvature="0" /></g></svg>