<?xml version="1.0" encoding="UTF-8" standalone="no"?>
<!-- Created with Inkscape (http://www.inkscape.org/) -->

<svg
   xmlns:dc="http://purl.org/dc/elements/1.1/"
   xmlns:cc="http://creativecommons.org/ns#"
   xmlns:rdf="http://www.w3.org/1999/02/22-rdf-syntax-ns#"
   xmlns:svg="http://www.w3.org/2000/svg"
   xmlns="http://www.w3.org/2000/svg"
   xmlns:sodipodi="http://sodipodi.sourceforge.net/DTD/sodipodi-0.dtd"
   xmlns:inkscape="http://www.inkscape.org/namespaces/inkscape"
   width="100mm"
   height="100mm"
   viewBox="0 0 100 100"
   version="1.1"
   id="svg8"
   inkscape:version="0.92.4 (5da689c313, 2019-01-14)"
   sodipodi:docname="feature.svg">
  <defs
     id="defs2" />
  <sodipodi:namedview
     id="base"
     pagecolor="#ffffff"
     bordercolor="#666666"
     borderopacity="1.0"
     inkscape:pageopacity="0.0"
     inkscape:pageshadow="2"
     inkscape:zoom="1.979899"
     inkscape:cx="-97.62421"
     inkscape:cy="128.64685"
     inkscape:document-units="mm"
     inkscape:current-layer="layer1"
     showgrid="false"
     fit-margin-top="0"
     fit-margin-left="0"
     fit-margin-right="0"
     fit-margin-bottom="0"
     inkscape:window-width="2880"
     inkscape:window-height="1527"
     inkscape:window-x="0"
     inkscape:window-y="0"
     inkscape:window-maximized="1" />
  <metadata
     id="metadata5">
    <rdf:RDF>
      <cc:Work
         rdf:about="">
        <dc:format>image/svg+xml</dc:format>
        <dc:type
           rdf:resource="http://purl.org/dc/dcmitype/StillImage" />
        <dc:title></dc:title>
      </cc:Work>
    </rdf:RDF>
  </metadata>
  <g
     inkscape:label="Layer 1"
     inkscape:groupmode="layer"
     id="layer1"
     transform="translate(-30.067822,-9.2431545)">
    <rect
       style="fill:#00aad4;fill-opacity:1;stroke:none;stroke-width:4.52437496;stroke-linecap:round;stroke-linejoin:miter;stroke-miterlimit:4;stroke-dasharray:none;stroke-opacity:0.98319325"
       id="rect21"
       width="100"
       height="100"
       x="29.992638"
       y="9.2431545"
       ry="7.8485446" />
    <g
       transform="matrix(0.1737756,0,0,0.1737756,37.412882,19.838904)"
       id="XMLID_57_"
       style="stroke-width:1.5225575">
      <path
         inkscape:connector-curvature="0"
         id="XMLID_58_"
         d="m 487.652,134.923 c -4.818,-8.098 -15.295,-10.749 -23.41,-5.961 l -57.391,34.111 -7.147,-20.398 c 5.333,-16.806 -2.604,-35.251 -19.119,-42.505 -7.135,-3.149 -20.197,-9.487 -28.36,-9.728 l -76.96,1.719 c -8.418,0.192 -15.44,6.476 -16.564,14.822 l -8.58,64.211 27.717,-16.469 c 3.004,-1.798 6.216,-2.885 9.461,-3.623 l 3.358,-25.096 24.311,-0.539 -11.439,26.052 c 7.663,2.226 14.541,7.158 18.927,14.549 8.803,14.854 4.368,33.764 -9.69,43.381 -3.663,2.546 -33.258,19.995 -37.21,22.349 L 262.879,293.632 205.711,276.6 c -5.995,-1.775 -12.052,-0.617 -16.999,2.419 l 34.076,30.768 c 5.738,5.183 9.32,12.01 10.926,19.313 l 39.202,11.68 c 11.923,3.527 24.263,-3.896 26.77,-16.026 l 11.471,-55.903 42.626,36.809 -20.743,110.418 c -2.168,11.496 5.398,22.55 16.87,24.71 11.52,2.153 22.559,-5.421 24.712,-16.885 l 22.926,-122.076 c 1.366,-7.248 -1.14,-14.669 -6.619,-19.618 l -37.29,-33.685 26.091,-59.432 1.752,4.98 c 3.632,10.379 15.746,14.476 24.857,9.054 l 75.353,-44.779 c 8.114,-4.827 10.78,-15.31 5.96,-23.424 z"
         style="stroke-width:1.5225575" />
      <path
         inkscape:connector-curvature="0"
         id="XMLID_59_"
         d="m 175.118,287.574 6.555,-14.918 11.393,-25.947 8.162,-18.582 1.752,5.005 c 3.598,10.225 15.617,14.516 24.855,9.046 l 75.354,-44.779 c 8.128,-4.829 10.797,-15.312 5.961,-23.425 -4.821,-8.098 -15.279,-10.742 -23.409,-5.961 l -57.407,34.109 -7.133,-20.398 c 5.316,-16.805 -2.604,-35.25 -19.12,-42.504 -1.224,-0.539 -13.563,-5.962 -13.674,-6.01 -3.392,-1.494 -11.136,-3.799 -16.743,-3.671 l -74.887,1.67 c -8.435,0.195 -15.457,6.476 -16.564,14.823 l -10.233,76.59 c -1.238,9.358 5.317,17.955 14.683,19.201 9.369,1.276 17.963,-5.368 19.201,-14.67 l 8.291,-62.098 24.309,-0.54 -35.268,80.327 c -3.213,7.327 -4.145,15.016 -3.406,22.444 L 84.358,332.679 27.21,315.649 c -11.199,-3.311 -22.977,3.037 -26.32,14.243 -3.341,11.19 3.037,22.976 14.236,26.317 L 94.4,379.828 c 11.761,3.51 24.26,-3.792 26.769,-16.027 9.719,-47.301 7.309,-35.531 11.473,-55.904 l 42.624,36.817 -20.728,110.419 c -2.15,11.48 5.415,22.533 16.887,24.703 11.535,2.152 22.543,-5.456 24.696,-16.903 l 22.911,-122.068 c 1.364,-7.246 -1.143,-14.669 -6.604,-19.61 z"
         style="stroke-width:1.5225575" />
      <path
         inkscape:connector-curvature="0"
         id="XMLID_60_"
         d="m 199.62,126.704 c 20.423,8.99 44.459,-0.225 53.521,-20.846 9.028,-20.541 -0.324,-44.498 -20.855,-53.519 -20.551,-9.029 -44.49,0.313 -53.52,20.855 -9.238,21.015 1.095,44.835 20.854,53.51 z"
         style="stroke-width:1.5225575" />
      <path
         inkscape:connector-curvature="0"
         id="XMLID_61_"
         d="m 378.124,87.655 c 20.533,9.029 44.506,-0.298 53.535,-20.847 9.029,-20.543 -0.322,-44.497 -20.855,-53.519 -20.565,-9.023 -44.521,0.313 -53.533,20.854 -9.032,20.542 0.318,44.489 20.853,53.512 z"
         style="stroke-width:1.5225575" />
    </g>
  </g>
</svg>
