<?xml version="1.0" encoding="UTF-8" standalone="no"?>
<!-- Generator: Adobe Illustrator 18.1.1, SVG Export Plug-In . SVG Version: 6.00 Build 0)  -->

<svg
   xmlns:osb="http://www.openswatchbook.org/uri/2009/osb"
   xmlns:dc="http://purl.org/dc/elements/1.1/"
   xmlns:cc="http://creativecommons.org/ns#"
   xmlns:rdf="http://www.w3.org/1999/02/22-rdf-syntax-ns#"
   xmlns:svg="http://www.w3.org/2000/svg"
   xmlns="http://www.w3.org/2000/svg"
   xmlns:sodipodi="http://sodipodi.sourceforge.net/DTD/sodipodi-0.dtd"
   xmlns:inkscape="http://www.inkscape.org/namespaces/inkscape"
   version="1.1"
   id="Capa_1"
   x="0px"
   y="0px"
   viewBox="0 0 317.43084 306.45244"
   xml:space="preserve"
   inkscape:version="0.48.5 r10040"
   width="100%"
   height="100%"
   sodipodi:docname="print-new.svg"><metadata
     id="metadata3111"><rdf:RDF><cc:Work
         rdf:about=""><dc:format>image/svg+xml</dc:format><dc:type
           rdf:resource="http://purl.org/dc/dcmitype/StillImage" /><dc:title /></cc:Work></rdf:RDF></metadata><defs
     id="defs3109"><linearGradient
       id="linearGradient3784"
       osb:paint="solid"><stop
         style="stop-color:#93da22;stop-opacity:1;"
         offset="0"
         id="stop3786" /></linearGradient></defs><sodipodi:namedview
     pagecolor="#ffffff"
     bordercolor="#666666"
     borderopacity="1"
     objecttolerance="10"
     gridtolerance="10"
     guidetolerance="10"
     inkscape:pageopacity="0"
     inkscape:pageshadow="2"
     inkscape:window-width="2874"
     inkscape:window-height="1556"
     id="namedview3107"
     showgrid="false"
     inkscape:zoom="4.7240449"
     inkscape:cx="82.450534"
     inkscape:cy="168.63957"
     inkscape:window-x="0"
     inkscape:window-y="0"
     inkscape:window-maximized="0"
     inkscape:current-layer="Capa_1"
     fit-margin-top="0"
     fit-margin-left="0"
     fit-margin-right="0"
     fit-margin-bottom="0" /><path
     sodipodi:type="arc"
     style="color:#000000;fill:#ffffff;fill-opacity:1;fill-rule:nonzero;stroke:#000000;stroke-width:0.125;stroke-linecap:butt;stroke-linejoin:bevel;stroke-miterlimit:4;stroke-opacity:1;stroke-dasharray:none;stroke-dashoffset:0;marker:none;visibility:visible;display:inline;overflow:visible;enable-background:accumulate"
     id="path3135"
     sodipodi:cx="255.18385"
     sodipodi:cy="127.85653"
     sodipodi:rx="15.347017"
     sodipodi:ry="14.81781"
     d="m 270.53087,127.85653 a 15.347017,14.81781 0 1 1 -30.69403,0 15.347017,14.81781 0 1 1 30.69403,0 z"
     transform="translate(0,21.916439)" /><path
     style="color:#000000;fill:#ffffff;fill-opacity:1;fill-rule:nonzero;stroke:#000000;stroke-width:0.125;stroke-linecap:butt;stroke-linejoin:bevel;stroke-miterlimit:4;stroke-opacity:1;stroke-dashoffset:0;marker:none;visibility:visible;display:inline;overflow:visible;enable-background:accumulate"
     d="m 88.271814,38.639397 74.300716,0.635049 34.07155,29.362168 0.64446,84.311636 -109.016726,0 z"
     id="rect3132"
     inkscape:connector-curvature="0"
     sodipodi:nodetypes="cccccc" /><g
     id="g3069"
     transform="translate(0,21.916439)"><path
       style="fill:#010002"
       d="m 73.634,240.67 -2.116,22.208 c -1.142,11.961 7.675,21.658 19.689,21.658 h 102.717 c 12.015,0 21.06,-9.714 20.206,-21.702 l -1.583,-22.17 H 73.634 v 0.006 z"
       id="path3071"
       inkscape:connector-curvature="0" /><path
       style="fill:#010002"
       d="M 285.137,242.112 V 119.553 c 0,-12.015 -9.741,-21.756 -21.756,-21.756 h -37.774 v 57.97 H 59.531 V 97.797 H 21.756 C 9.741,97.797 0,107.538 0,119.553 v 122.558 c 0,12.015 9.741,21.756 21.756,21.756 H 59.53 v -37.6 h 166.071 v 37.6 h 37.774 c 12.021,10e-4 21.762,-9.74 21.762,-21.755 z M 255.636,138.53 c -5.624,0 -10.187,-4.558 -10.187,-10.182 0,-5.624 4.563,-10.182 10.187,-10.182 5.619,0 10.182,4.558 10.182,10.182 0,5.624 -4.563,10.182 -10.182,10.182 z"
       id="path3073"
       inkscape:connector-curvature="0" /><path
       style="fill:#010002"
       d="M 210.639,42.52 V 37.565 L 172.299,0.601 h -5.483 c -0.011,0 -0.011,0 -0.011,0 -0.011,0 -0.011,0 -0.011,0 H 95.613 C 84.224,0.601 74.961,9.853 74.961,21.22 V 141.674 H 210.638 V 42.917 c 0.001,-0.131 0.006,-0.261 0.001,-0.397 z m -20.294,77.387 c 0,0.185 -0.141,0.315 -0.343,0.315 h -94.39 c -0.207,0 -0.354,-0.131 -0.354,-0.315 V 21.215 c 0,-0.185 0.152,-0.321 0.354,-0.321 h 59.748 v 12.407 c 0,15.523 13.315,21.158 22.278,21.158 h 12.706 c 0.001,0 0.001,65.448 0.001,65.448 z"
       id="path3075"
       inkscape:connector-curvature="0" /></g><g
     id="g3077"
     transform="translate(0,21.916439)" /><g
     id="g3079"
     transform="translate(0,21.916439)" /><g
     id="g3081"
     transform="translate(0,21.916439)" /><g
     id="g3083"
     transform="translate(0,21.916439)" /><g
     id="g3085"
     transform="translate(0,21.916439)" /><g
     id="g3087"
     transform="translate(0,21.916439)" /><g
     id="g3089"
     transform="translate(0,21.916439)" /><g
     id="g3091"
     transform="translate(0,21.916439)" /><g
     id="g3093"
     transform="translate(0,21.916439)" /><g
     id="g3095"
     transform="translate(0,21.916439)" /><g
     id="g3097"
     transform="translate(0,21.916439)" /><g
     id="g3099"
     transform="translate(0,21.916439)" /><g
     id="g3101"
     transform="translate(0,21.916439)" /><g
     id="g3103"
     transform="translate(0,21.916439)" /><g
     id="g3105"
     transform="translate(0,21.916439)" /><g
     id="g3790"
     transform="matrix(1.3783697,0,0,1.3783697,317.85171,-54.698278)"><path
       sodipodi:type="star"
       style="color:#000000;fill:#ffdd55;fill-opacity:1;stroke:#ffffff;stroke-width:11.84897518;stroke-linecap:round;stroke-linejoin:round;stroke-miterlimit:4;stroke-opacity:1;stroke-dasharray:none;marker:none;visibility:visible;display:inline;overflow:visible;enable-background:accumulate"
       id="path3782"
       sodipodi:sides="5"
       sodipodi:cx="-127.43317"
       sodipodi:cy="50.38055"
       sodipodi:r1="45.084503"
       sodipodi:r2="22.542253"
       sodipodi:arg1="0.82192676"
       sodipodi:arg2="1.4502453"
       inkscape:flatsided="false"
       inkscape:rounded="0"
       inkscape:randomized="0"
       d="m -96.739132,83.403098 -27.983118,-10.643894 -24.63225,17.017637 1.47569,-29.902673 -23.79652,-18.167919 28.89515,-7.836974 9.92518,-28.2460279 16.3825,25.0591569 29.930621,0.710913 -18.770201,23.324385 z"
       transform="matrix(1.4594215,0,0,1.4603248,117.34674,40.120547)" /><path
       transform="matrix(1.2284555,0,0,1.2289047,87.695579,51.42188)"
       d="m -96.739132,83.403098 -27.983118,-10.643894 -24.63225,17.017637 1.47569,-29.902673 -23.79652,-18.167919 28.89515,-7.836974 9.92518,-28.2460279 16.3825,25.0591569 29.930621,0.710913 -18.770201,23.324385 z"
       inkscape:randomized="0"
       inkscape:rounded="0"
       inkscape:flatsided="false"
       sodipodi:arg2="1.4502453"
       sodipodi:arg1="0.82192676"
       sodipodi:r2="22.542253"
       sodipodi:r1="45.084503"
       sodipodi:cy="50.38055"
       sodipodi:cx="-127.43317"
       sodipodi:sides="5"
       id="path3012"
       style="color:#000000;fill:none;stroke:#000000;stroke-width:14.07852268;stroke-linecap:round;stroke-linejoin:round;stroke-miterlimit:4;stroke-dasharray:none;marker:none;visibility:visible;display:inline;overflow:visible;enable-background:accumulate"
       sodipodi:type="star" /></g></svg>