<?xml version="1.0" encoding="UTF-8" standalone="no"?>
<!-- Created with Inkscape (http://www.inkscape.org/) -->

<svg
   xmlns:dc="http://purl.org/dc/elements/1.1/"
   xmlns:cc="http://creativecommons.org/ns#"
   xmlns:rdf="http://www.w3.org/1999/02/22-rdf-syntax-ns#"
   xmlns:svg="http://www.w3.org/2000/svg"
   xmlns="http://www.w3.org/2000/svg"
   xmlns:sodipodi="http://sodipodi.sourceforge.net/DTD/sodipodi-0.dtd"
   xmlns:inkscape="http://www.inkscape.org/namespaces/inkscape"
   width="100mm"
   height="100mm"
   viewBox="0 0 100 100"
   version="1.1"
   id="svg8"
   inkscape:version="0.92.4 (5da689c313, 2019-01-14)"
   sodipodi:docname="feature.svg">
  <defs
     id="defs2" />
  <sodipodi:namedview
     id="base"
     pagecolor="#ffffff"
     bordercolor="#666666"
     borderopacity="1.0"
     inkscape:pageopacity="0.0"
     inkscape:pageshadow="2"
     inkscape:zoom="1.979899"
     inkscape:cx="65.364932"
     inkscape:cy="115.0645"
     inkscape:document-units="mm"
     inkscape:current-layer="layer1"
     showgrid="false"
     inkscape:window-width="2880"
     inkscape:window-height="1527"
     inkscape:window-x="0"
     inkscape:window-y="0"
     inkscape:window-maximized="1"
     fit-margin-top="0"
     fit-margin-left="0"
     fit-margin-right="0"
     fit-margin-bottom="0" />
  <metadata
     id="metadata5">
    <rdf:RDF>
      <cc:Work
         rdf:about="">
        <dc:format>image/svg+xml</dc:format>
        <dc:type
           rdf:resource="http://purl.org/dc/dcmitype/StillImage" />
        <dc:title></dc:title>
      </cc:Work>
    </rdf:RDF>
  </metadata>
  <g
     inkscape:label="Layer 1"
     inkscape:groupmode="layer"
     id="layer1"
     transform="translate(-25.102737,-16.212763)">
    <rect
       style="fill:#8dd35f;fill-opacity:1;stroke:none;stroke-width:4.52437496;stroke-linecap:round;stroke-linejoin:miter;stroke-miterlimit:4;stroke-dasharray:none;stroke-opacity:0.98319325"
       id="rect21"
       width="100"
       height="100"
       x="25.102737"
       y="16.212763"
       ry="7.8485451"
       inkscape:transform-center-x="-207.61653"
       inkscape:transform-center-y="91.61017" />
    <path
       style="fill:#000000;stroke-width:1.00000012"
       d="m 50.147096,105.55074 c -2.31766,-0.62281 -3.971115,-1.64189 -5.750558,-3.54426 -2.290893,-2.449148 -2.854452,-3.964306 -2.868132,-7.711094 -0.01043,-2.867486 0.06821,-3.292875 0.920669,-4.977139 0.512664,-1.012917 1.596707,-2.549547 2.408983,-3.414735 1.425354,-1.51819 1.524064,-1.56673 2.829954,-1.391566 2.654598,0.35605 3.640993,3.017893 1.947152,5.254478 -2.013418,2.658573 -2.443158,4.790623 -1.38405,6.866645 1.698934,3.330183 5.770804,3.979161 10.436489,1.663395 2.057078,-1.021011 3.324657,-2.172141 13.556937,-12.311514 6.543294,-6.483879 11.911835,-11.547336 12.772638,-12.0468 2.939988,-1.705867 6.271852,-2.151053 9.353881,-1.249819 4.794605,1.402015 8.203471,5.449868 8.654181,10.276378 0.42288,4.528488 -0.87992,6.817287 -8.036694,14.119203 -6.227815,6.354118 -7.496243,7.401748 -8.96184,7.401748 -1.592233,0 -2.964805,-1.45891 -2.964805,-3.15129 0,-1.31006 0.102105,-1.435518 6.213359,-7.634476 3.417353,-3.466403 6.440651,-6.669924 6.718452,-7.118955 1.382478,-2.234617 0.937761,-4.627748 -1.211568,-6.519666 -1.634646,-1.43887 -3.167756,-1.816385 -5.178078,-1.27506 -1.201495,0.32353 -2.715787,1.705703 -12.498796,11.408373 -6.122417,6.072134 -11.766597,11.470724 -12.542625,11.996884 -4.999998,3.39 -9.981428,4.55082 -14.415549,3.35927 z M 51.942387,83.164226 C 49.57119,80.761733 47.63112,78.713141 47.63112,78.611794 c 0,-0.101347 1.363004,-1.693454 3.028897,-3.538021 5.981901,-6.623478 16.169413,-19.960095 23.605121,-30.901799 0.77077,-1.134195 1.104476,-1.414708 1.305515,-1.097413 0.176147,0.278009 0.271741,-0.03182 0.274874,-0.89089 0.02004,-5.495405 3.954341,-11.575547 9.130992,-14.111169 2.622973,-1.284783 4.216983,-1.642812 7.356488,-1.652323 4.382216,-0.01327 8.289423,1.612147 11.433823,4.756544 9.89668,9.896693 3.98298,26.2612 -10.122721,28.011787 -0.819148,0.101654 -1.489347,0.296418 -1.489347,0.432795 0,0.13638 -1.587338,1.356892 -3.527409,2.712249 -4.471843,3.124084 -14.685258,10.567603 -16.539586,12.054021 -0.776029,0.622059 -3.16265,2.529121 -5.303605,4.237917 -2.140954,1.708798 -5.343297,4.416791 -7.116316,6.01777 -1.77302,1.600979 -3.26654,2.905977 -3.318931,2.899992 -0.05239,-0.0059 -2.03533,-1.976547 -4.406528,-4.379028 z M 74.596988,65.370695 c 3.264588,-3.278033 3.71381,-4.165951 2.987331,-5.904662 -0.848331,-2.030343 -2.944996,-2.850797 -4.814564,-1.884007 -1.252158,0.647517 -5.957502,5.658339 -6.19246,6.594486 -0.293975,1.171292 0.09025,2.328295 1.112755,3.350799 0.737396,0.737396 1.168659,0.900466 2.381429,0.900466 1.456152,0 1.531974,-0.05122 4.525509,-3.057082 z m 20.465683,-11.468552 1.183411,-0.367837 -7.360671,-7.350573 -7.360676,-7.350573 -0.357572,0.922865 c -0.602705,1.555543 -0.238471,6.004378 0.640676,7.825387 1.525004,3.158789 4.779708,5.783405 7.94987,6.410833 1.866443,0.369401 3.939952,0.334183 5.304962,-0.0901 z m 6.789399,-4.821692 c 2.59422,-3.916561 2.5395,-8.742521 -0.14499,-12.786886 -2.078271,-3.131044 -5.459824,-4.911067 -9.395546,-4.945739 -2.599604,-0.02291 -4.103917,0.418931 -6.398132,1.879196 l -1.694941,1.078819 8.120377,8.124886 c 4.466213,4.468686 8.213922,8.124885 8.328262,8.124885 0.11436,0 0.64757,-0.663823 1.18497,-1.475161 z"
       id="path896"
       inkscape:connector-curvature="0" />
  </g>
</svg>
