<?xml version="1.0" encoding="UTF-8" standalone="no"?>
<!-- Generator: Adobe Illustrator 19.1.0, SVG Export Plug-In . SVG Version: 6.00 Build 0)  -->

<svg
   xmlns:dc="http://purl.org/dc/elements/1.1/"
   xmlns:cc="http://creativecommons.org/ns#"
   xmlns:rdf="http://www.w3.org/1999/02/22-rdf-syntax-ns#"
   xmlns:svg="http://www.w3.org/2000/svg"
   xmlns="http://www.w3.org/2000/svg"
   xmlns:sodipodi="http://sodipodi.sourceforge.net/DTD/sodipodi-0.dtd"
   xmlns:inkscape="http://www.inkscape.org/namespaces/inkscape"
   version="1.1"
   id="Capa_1"
   x="0px"
   y="0px"
   viewBox="0 0 377.95276 377.95276"
   xml:space="preserve"
   sodipodi:docname="feature.svg"
   inkscape:version="0.92.4 (5da689c313, 2019-01-14)"
   width="377.95276"
   height="377.95276"><metadata
   id="metadata1022"><rdf:RDF><cc:Work
       rdf:about=""><dc:format>image/svg+xml</dc:format><dc:type
         rdf:resource="http://purl.org/dc/dcmitype/StillImage" /><dc:title></dc:title></cc:Work></rdf:RDF></metadata><defs
   id="defs1020">
	
	
	
	
	
	
	
	
	
	
	
	
	
	
	
	
	
	
</defs><sodipodi:namedview
   pagecolor="#ffffff"
   bordercolor="#666666"
   borderopacity="1"
   objecttolerance="10"
   gridtolerance="10"
   guidetolerance="10"
   inkscape:pageopacity="0"
   inkscape:pageshadow="2"
   inkscape:window-width="2880"
   inkscape:window-height="1527"
   id="namedview1018"
   showgrid="false"
   inkscape:zoom="1.4202315"
   inkscape:cx="327.92888"
   inkscape:cy="123.06208"
   inkscape:window-x="0"
   inkscape:window-y="0"
   inkscape:window-maximized="1"
   inkscape:current-layer="Capa_1"
   fit-margin-top="0"
   fit-margin-left="0"
   fit-margin-right="0"
   fit-margin-bottom="0" />

<g
   id="g987"
   transform="translate(-208.83084,40.109852)">
</g>
<g
   id="g989"
   transform="translate(-208.83084,40.109852)">
</g>
<g
   id="g991"
   transform="translate(-208.83084,40.109852)">
</g>
<g
   id="g993"
   transform="translate(-208.83084,40.109852)">
</g>
<g
   id="g995"
   transform="translate(-208.83084,40.109852)">
</g>
<g
   id="g997"
   transform="translate(-208.83084,40.109852)">
</g>
<g
   id="g999"
   transform="translate(-208.83084,40.109852)">
</g>
<g
   id="g1001"
   transform="translate(-208.83084,40.109852)">
</g>
<g
   id="g1003"
   transform="translate(-208.83084,40.109852)">
</g>
<g
   id="g1005"
   transform="translate(-208.83084,40.109852)">
</g>
<g
   id="g1007"
   transform="translate(-208.83084,40.109852)">
</g>
<g
   id="g1009"
   transform="translate(-208.83084,40.109852)">
</g>
<g
   id="g1011"
   transform="translate(-208.83084,40.109852)">
</g>
<g
   id="g1013"
   transform="translate(-208.83084,40.109852)">
</g>
<g
   id="g1015"
   transform="translate(-208.83084,40.109852)">
</g>
<rect
   style="fill:#ffcc00;fill-opacity:1;stroke:none;stroke-width:17.10000038;stroke-linecap:round;stroke-linejoin:miter;stroke-miterlimit:4;stroke-dasharray:none;stroke-opacity:0.98319325"
   id="rect21"
   width="377.95276"
   height="377.95276"
   x="0"
   y="0"
   ry="29.663792"
   inkscape:transform-center-x="-207.61653"
   inkscape:transform-center-y="91.61017" /><rect
   style="fill:#e3dbdb;fill-opacity:1;stroke:#000000;stroke-width:9.16651249;stroke-linecap:round;stroke-linejoin:bevel;stroke-miterlimit:4;stroke-dasharray:none;stroke-opacity:0.98319325"
   id="rect2715"
   width="79.501579"
   height="340.88168"
   x="-36.586983"
   y="88.650597"
   ry="7.292129"
   transform="matrix(0.73451194,-0.67859576,0.72674495,0.6869074,0,0)" /><path
   inkscape:connector-curvature="0"
   id="path983"
   d="m 310.26712,264.55167 21.64525,-21.64524 c 10.2884,-10.28841 10.28911,-27.02916 0,-37.31827 -3.05683,-3.05682 -6.68287,-5.20501 -10.54084,-6.44528 6.50184,-10.20426 5.30117,-23.93486 -3.59989,-32.83592 -5.22976,-5.22976 -12.12688,-7.8008 -18.99642,-7.71383 0.0863,-6.87025 -2.48407,-13.76666 -7.71453,-18.99712 -5.23047,-5.23047 -12.12759,-7.80151 -18.99713,-7.71454 0.087,-6.86954 -2.48407,-13.76666 -7.71454,-18.99713 -10.24527,-10.24527 -26.95137,-10.20992 -37.22634,0.065 -20.62348,20.516 -29.58323,29.47999 -33.55576,33.50201 -7.50947,-0.52043 -14.8952,2.22102 -20.40003,7.72585 l -31.26967,31.26968 c -20.97915,20.97915 -29.84981,51.37413 -23.68172,80.24743 l -80.397861,78.28553 c -2.96756,2.88959 -2.92883,7.67776 0,10.6066 2.92884,2.92883 7.67777,2.92883 10.60661,0 l 83.365581,-81.25326 c 1.89293,-1.89292 2.63327,-4.65135 1.94313,-7.23794 -6.66448,-24.96017 0.52821,-51.7977 18.77157,-70.04105 l 31.26967,-31.26968 c 2.79025,-2.79024 6.66802,-3.93434 10.42276,-3.1141 0.11738,0.0354 0.23122,0.0757 0.35214,0.10465 2.01101,0.49215 3.85373,1.5316 5.33017,3.00804 l 34.22184,34.22184 c 4.43993,4.43993 4.43993,11.66514 0,16.10507 -4.43992,4.43992 -11.66443,4.44063 -16.10506,0 l -20.86601,-20.86602 c -1.40644,-1.40643 -3.31421,-2.19698 -5.30331,-2.19627 -1.98979,0 -3.89686,0.78984 -5.3033,2.19627 l -21.05622,21.05623 c -2.11991,2.11991 -2.77327,5.29764 -1.66382,8.08152 l 16.67357,41.81406 c 0.38962,0.97651 0.96096,1.82504 1.65958,2.52366 2.05556,2.05556 5.2135,2.80934 8.08506,1.66453 3.84808,-1.53442 5.72191,-5.89727 4.1889,-9.74535 l -14.84358,-37.22351 12.25981,-12.25982 15.56272,15.56271 c 8.97035,8.97036 22.8445,10.11658 33.07138,3.44503 1.28552,3.16218 3.20885,6.12354 5.76999,8.68468 5.23047,5.23047 12.12759,7.80151 18.99713,7.71454 -0.087,6.86954 2.48407,13.76666 7.71454,18.99713 2.88217,2.88217 6.27062,4.9554 9.88111,6.22254 l -29.20988,29.20987 c -26.51155,26.51156 -69.64789,26.51156 -96.15945,0 -2.92883,-2.92883 -7.67776,-2.92883 -10.6066,0 -2.92883,2.92884 -2.92883,7.67777 0,10.60661 9.36563,9.36562 20.4361,16.00253 32.21791,19.94677 l -17.84395,17.84394 c -2.92883,2.92884 -2.92883,7.67777 0,10.60661 2.92884,2.92883 7.67777,2.92883 10.60661,0 l 24.63924,-24.63924 c 24.16325,2.63326 49.26837,-5.27361 67.75285,-23.75808 z M 208.66648,152.53818 c 7.59433,-7.60423 19.92415,-19.89021 29.04936,-28.96875 4.43993,-4.43992 11.62979,-4.47528 16.02658,-0.0785 4.43992,4.43992 4.43992,11.66514 0,16.10506 l -28.91855,28.91855 -14.33729,-14.3373 c -0.58054,-0.57912 -1.1936,-1.11864 -1.8201,-1.63907 z m 36.04124,35.86163 -9.27795,-9.27795 28.91925,-28.91925 c 4.43992,-4.43993 11.66443,-4.44064 16.10506,0 4.44063,4.44063 4.43993,11.66514 0,16.10506 l -30.2182,30.21821 c -1.28128,-2.95147 -3.11905,-5.71696 -5.52816,-8.12607 z m 12.1297,38.84137 c -4.43992,-4.43992 -4.43992,-11.66514 0,-16.10506 l 34.22256,-34.22256 c 4.43992,-4.43992 11.66443,-4.44063 16.10436,-7e-4 4.43992,4.43992 4.43992,11.66514 0,16.10506 l -12.57024,12.57024 -21.65232,21.65232 c -4.43921,4.44063 -11.66443,4.44063 -16.10436,7e-4 z m 26.71096,26.71096 c -4.43992,-4.43992 -4.43992,-11.66514 0,-16.10506 l 21.65868,-21.65868 c 4.44063,-4.43356 11.66019,-4.43215 16.098,0.006 4.43992,4.43993 4.43992,11.66514 0,16.10507 l -21.65868,21.65868 c -4.44063,4.43356 -11.66019,4.43214 -16.098,-0.006 z"
   style="fill:#3e2c3a"
   sodipodi:nodetypes="csccscscsccsscsccccscccsssscccsccsccccscscscsscccccccscccsscccscccccssssssccscscccccc" /><g
   id="g2727"
   style="fill:#ffcc00;fill-opacity:1"
   transform="translate(240.15715,231.33794)"><path
     style="fill:#ffcc00;fill-opacity:1"
     d="m 81.149311,-15.143904 c -4.4378,-4.4378 -11.65736,-4.43922 -16.09799,-0.006 L 43.392641,6.5087762 c -4.43992,4.4399298 -4.44063,11.6644398 0,16.1050698 4.4378,4.4378 11.65736,4.43921 16.09799,0.006 L 81.149311,0.96116625 c 4.43993,-4.43992005 4.43993,-11.66514025 0,-16.10506025 z"
     id="path973"
     inkscape:connector-curvature="0" /><path
     style="fill:#ffcc00;fill-opacity:1"
     d="m 54.437651,-25.750504 12.57024,-12.57024 c 4.43992,-4.43992 4.44063,-11.66443 0,-16.10506 -4.43993,-4.43993 -11.66444,-4.43922 -16.10436,7e-4 l -34.22185,34.22185 c -4.43992,4.43992 -4.44063,11.6644302 0,16.1050702 4.44063,4.44063005 11.66514,4.43992005 16.10507,0 -7.1e-4,7e-4 21.64453,-21.6445402 21.6509,-21.6523202 z"
     id="path975"
     inkscape:connector-curvature="0" /><path
     style="fill:#ffcc00;fill-opacity:1"
     d="m 40.296931,-65.031704 c 4.43992,-4.43992 4.44063,-11.66443 0,-16.10506 -4.44063,-4.440632 -11.66514,-4.439925 -16.10507,0 l -28.9185396,28.91854 9.27795,9.27795 c 2.40911,2.40912 4.24688,5.17461 5.5281596,8.12607 z"
     id="path977"
     inkscape:connector-curvature="0" /><path
     style="fill:#ffcc00;fill-opacity:1"
     d="m 13.585971,-91.74266 c 4.43992,-4.439924 4.44063,-11.66443 0,-16.10506 -4.3967896,-4.39679 -11.5866496,-4.36144 -16.0265796,0.0785 -9.1252104,9.077126 -21.4557404,21.363814 -29.0493604,28.968748 0.6265,0.52043 1.23956,1.05995 1.81939,1.63978 l 14.3373,14.3373 28.91925,-28.919256 z"
     id="path979"
     inkscape:connector-curvature="0" /></g><path
   inkscape:connector-curvature="0"
   id="path981"
   d="m 146.84767,310.59847 c -2.92883,-2.92884 -2.92883,-7.67777 0,-10.60661 2.92884,-2.92883 7.67777,-2.92883 10.6066,0 34.76924,27.99705 61.17642,35.51111 98.78916,-2.10162 l -74.38886,-69.13877 12.55593,30.88864 c 1.53372,3.84737 -0.34153,8.21021 -4.1889,9.74534 -2.87156,1.14481 -6.0295,0.39103 -8.08506,-1.66453 -0.69862,-0.69862 -1.27067,-1.54785 -1.65958,-2.52366 l -16.67357,-41.81405 c -1.10945,-2.78388 -0.45609,-5.96162 1.66382,-8.08153 l 21.05622,-21.05622 c 1.40644,-1.40644 3.31351,-2.19628 5.3033,-2.19628 1.9891,-7e-4 3.89687,0.78984 5.30331,2.19628 l 20.86601,20.86601 c 4.43992,4.43993 11.66514,4.43993 16.10506,0 4.43993,-4.43992 4.44063,-11.66443 0,-16.10506 l -34.22184,-34.22185 c -1.47644,-1.47644 -3.31916,-2.51588 -5.33017,-3.00803 -0.12021,-0.0297 -0.23476,-0.0707 -0.35214,-0.10465 -3.75474,-0.82025 -7.63181,0.32315 -10.42276,3.1141 l -31.26967,31.26967 c -18.24336,18.24336 -25.43534,45.08159 -18.77157,70.04105 0.69085,2.58589 -0.0495,5.34431 -1.94313,7.23794 l -30.20523,29.85319 52.24317,52.24317 25.23781,-24.88576 C 167.28377,326.601 156.2133,319.96409 146.84767,310.59847 Z"
   style="fill:#ffcc00;fill-opacity:1"
   sodipodi:nodetypes="cccccccsccsscsccssccsscscccc" /><path
   style="fill:#e3dbdb;fill-opacity:1;stroke:none;stroke-width:9.15600014;stroke-linecap:round;stroke-linejoin:bevel;stroke-miterlimit:4;stroke-dasharray:none;stroke-opacity:0.98319325"
   d="m 257.18611,286.81006 20.16419,19.41737 26.63325,-35.13427 c -7.19854,3.98305 -17.19765,1.30695 -21.15995,-0.31117 z"
   id="path2729"
   inkscape:connector-curvature="0"
   sodipodi:nodetypes="ccccc" /></svg>